<svg width="160" height="56" viewBox="0 0 160 56" fill="none" xmlns="http://www.w3.org/2000/svg">
<path d="M2.47264 33.9967V27.2445H12.3632C13.6629 27.2445 14.6932 26.9116 15.454 26.2459C16.2148 25.5485 16.5952 24.6609 16.5952 23.5831C16.5952 22.4419 16.1989 21.5384 15.4064 20.8727C14.6139 20.207 13.5203 19.89 12.1254 19.9217H2.47264V14.1205L8.22627 14.3107C11.428 14.3107 14.2494 14.6435 16.6903 15.3092C19.1629 15.9433 21.0808 16.9894 22.4439 18.4476C23.8071 19.8741 24.4886 21.8237 24.4886 24.2963C24.4886 26.3886 24.0131 28.1638 23.0621 29.622C22.1111 31.0485 20.7955 32.1422 19.1154 32.903C17.4353 33.6321 15.4698 33.9967 13.2191 33.9967H2.47264ZM0 33.9967V0.711171H7.46546V33.9967H0ZM2.18733 20.3972V13.7876H11.4122C12.6168 13.7876 13.5837 13.4865 14.3128 12.8842C15.0419 12.2501 15.4064 11.3784 15.4064 10.2689C15.4064 9.12765 15.0102 8.24004 14.2177 7.60603C13.4569 6.97202 12.4266 6.67086 11.1269 6.70256H2.18733V0.806274L11.6499 0.663621C13.9324 0.663621 15.9453 1.02818 17.6889 1.75729C19.4324 2.4547 20.7955 3.51667 21.7782 4.94319C22.7609 6.36971 23.2523 8.17663 23.2523 10.364C23.2523 12.0441 22.6183 13.5974 21.3503 15.0239C20.114 16.4188 18.3863 17.56 16.1672 18.4476C13.9482 19.3035 11.3805 19.7315 8.46403 19.7315L2.18733 20.3972Z" fill="black"/>
<path d="M33.917 22.8223V15.7848H40.0986C40.9862 15.7848 41.7788 15.6104 42.4762 15.2617C43.1736 14.913 43.7125 14.4375 44.0929 13.8352C44.505 13.2012 44.711 12.5038 44.711 11.7429C44.711 10.57 44.2672 9.60316 43.3796 8.84234C42.5237 8.08153 41.3825 7.70113 39.956 7.70113H33.917V0.711171L40.3364 0.663621C42.7456 0.631921 44.8854 1.09158 46.7557 2.04259C48.6261 2.99361 50.0843 4.30918 51.1304 5.9893C52.2082 7.66943 52.7471 9.58731 52.7471 11.7429C52.7471 13.8986 52.2082 15.8165 51.1304 17.4966C50.0526 19.1767 48.5627 20.4923 46.6606 21.4433C44.7903 22.3626 42.6347 22.8223 40.1937 22.8223H33.917ZM27.2599 33.9967V0.711171H34.9156V33.9967H27.2599ZM45.3292 33.9967L37.8162 20.7776L43.5698 16.5456L54.0785 33.9967H45.3292Z" fill="black"/>
<path d="M56.4702 33.9967V0.711171H64.1259V33.9967H56.4702Z" fill="black"/>
<path d="M84.329 34.5673C80.9053 34.5673 77.8779 33.8382 75.2468 32.38C72.6473 30.89 70.6027 28.8612 69.1127 26.2935C67.6228 23.694 66.8779 20.7142 66.8779 17.3539C66.8779 13.9937 67.6228 11.0297 69.1127 8.46194C70.6027 5.8625 72.6473 3.83367 75.2468 2.37545C77.8779 0.885525 80.9053 0.140564 84.329 0.140564C86.4529 0.140564 88.3708 0.457568 90.0826 1.09158C91.8261 1.69389 93.3477 2.53395 94.6475 3.61176C95.9472 4.68958 97.025 5.9259 97.8809 7.32072L91.5567 11.1248C91.0812 10.364 90.4472 9.68241 89.6546 9.0801C88.8938 8.47779 88.0538 8.01813 87.1345 7.70113C86.2151 7.35242 85.28 7.17807 84.329 7.17807C82.4586 7.17807 80.7944 7.60603 79.3361 8.46194C77.9096 9.31785 76.7843 10.5225 75.96 12.0758C75.1358 13.5974 74.7237 15.3568 74.7237 17.3539C74.7237 19.3511 75.12 21.1263 75.9125 22.6796C76.705 24.2012 77.8462 25.4058 79.3361 26.2935C80.8261 27.1811 82.5537 27.6249 84.5192 27.6249C86.0091 27.6249 87.3247 27.3396 88.4659 26.769C89.6071 26.1984 90.5106 25.4058 91.1763 24.3914C91.842 23.377 92.1748 22.1882 92.1748 20.8251L99.4501 19.5888C99.4501 22.8223 98.8002 25.5643 97.5005 27.8151C96.2008 30.0341 94.4256 31.7142 92.1748 32.8555C89.9241 33.9967 87.3088 34.5673 84.329 34.5673ZM84.5667 21.6335V15.7372H99.4501V20.2545L95.1705 21.6335H84.5667Z" fill="black"/>
<path d="M123.242 33.9967V0.711171H130.898V33.9967H123.242ZM101.749 33.9967V0.663621L109.405 0.711171V34.0442L101.749 33.9967ZM107.17 20.5398V13.5023H127.332V20.5398H107.17Z" fill="black"/>
<path d="M142.692 33.9967V3.46911H150.3V33.9967H142.692ZM132.991 7.74868V0.711171H160V7.74868H132.991Z" fill="black"/>
<path d="M1.60865 52V39.8919H3.07892V52H1.60865ZM2.83676 52V50.6681H8.78703V52H2.83676ZM10.2838 52L10.3184 43.3514H11.7022L11.6676 52H10.2838ZM10.993 41.3449C10.7623 41.3449 10.5605 41.2584 10.3876 41.0854C10.2146 40.9124 10.1281 40.7106 10.1281 40.48C10.1281 40.2378 10.2146 40.036 10.3876 39.8746C10.5605 39.7016 10.7623 39.6151 10.993 39.6151C11.2351 39.6151 11.4369 39.7016 11.5984 39.8746C11.7714 40.036 11.8578 40.2378 11.8578 40.48C11.8578 40.7106 11.7714 40.9124 11.5984 41.0854C11.4369 41.2584 11.2351 41.3449 10.993 41.3449ZM14.2176 52V39.8919H15.6014V50.3914L15.5322 52H14.2176ZM18.5246 52.2076C17.7981 52.2076 17.1581 52.0173 16.6046 51.6368C16.0626 51.2562 15.6417 50.7258 15.3419 50.0454C15.0421 49.3535 14.8922 48.5636 14.8922 47.6757C14.8922 46.7762 15.0421 45.9863 15.3419 45.3059C15.6417 44.6256 16.0626 44.0951 16.6046 43.7146C17.1581 43.3341 17.7981 43.1438 18.5246 43.1438C19.2972 43.1438 19.9776 43.3341 20.5657 43.7146C21.1538 44.0951 21.6093 44.6256 21.9322 45.3059C22.2666 45.9863 22.4338 46.7762 22.4338 47.6757C22.4338 48.5636 22.2666 49.3535 21.9322 50.0454C21.6093 50.7258 21.1538 51.2562 20.5657 51.6368C19.9776 52.0173 19.2972 52.2076 18.5246 52.2076ZM18.2132 50.9449C18.7552 50.9449 19.2338 50.8065 19.6489 50.5297C20.0756 50.253 20.41 49.8667 20.6522 49.3708C20.9059 48.875 21.0327 48.3099 21.0327 47.6757C21.0327 47.0414 20.9116 46.4764 20.6695 45.9805C20.4388 45.4847 20.1102 45.0984 19.6835 44.8216C19.2568 44.5449 18.7725 44.4065 18.2305 44.4065C17.7232 44.4065 17.2677 44.5449 16.8641 44.8216C16.472 45.0984 16.1606 45.4847 15.93 45.9805C15.7109 46.4764 15.6014 47.0414 15.6014 47.6757C15.6014 48.3099 15.7109 48.875 15.93 49.3708C16.1606 49.8667 16.472 50.253 16.8641 50.5297C17.2561 50.8065 17.7059 50.9449 18.2132 50.9449ZM25.1138 47.3124C25.1138 46.3784 25.2925 45.6231 25.65 45.0465C26.0075 44.4584 26.463 44.0259 27.0165 43.7492C27.5815 43.4609 28.1754 43.3168 28.7981 43.3168V44.6141C28.2907 44.6141 27.8006 44.7005 27.3278 44.8735C26.8666 45.035 26.486 45.3059 26.1862 45.6865C25.8864 46.067 25.7365 46.5859 25.7365 47.2432L25.1138 47.3124ZM24.3527 52V43.3514H25.7365V52H24.3527ZM35.6114 52L35.473 47.4335C35.4499 46.7532 35.3634 46.1939 35.2135 45.7557C35.0636 45.3059 34.833 44.9715 34.5216 44.7524C34.2103 44.5218 33.7951 44.4065 33.2762 44.4065C32.7804 44.4065 32.3479 44.5045 31.9789 44.7005C31.6214 44.8966 31.3274 45.2022 31.0968 45.6173L29.8687 45.1157C30.0877 44.7121 30.3587 44.3661 30.6816 44.0778C31.0045 43.778 31.385 43.5474 31.8232 43.3859C32.2614 43.2245 32.7515 43.1438 33.2935 43.1438C34.0892 43.1438 34.7523 43.2995 35.2827 43.6108C35.8132 43.9222 36.2052 44.3892 36.4589 45.0119C36.7241 45.6231 36.8568 46.3899 36.8568 47.3124V52H35.6114ZM32.9822 52.2076C31.9559 52.2076 31.1544 51.9769 30.5778 51.5157C30.0128 51.0429 29.7303 50.3914 29.7303 49.5611C29.7303 48.6847 30.0186 48.0159 30.5951 47.5546C31.1832 47.0818 32.002 46.8454 33.0514 46.8454H36.0957V48.0043H33.3627C32.5555 48.0043 31.9789 48.1369 31.633 48.4022C31.2986 48.6674 31.1314 49.0479 31.1314 49.5438C31.1314 49.9935 31.2986 50.351 31.633 50.6162C31.9674 50.8699 32.4344 50.9968 33.0341 50.9968C33.5414 50.9968 33.9796 50.8814 34.3487 50.6508C34.7177 50.4202 35.0002 50.1088 35.1962 49.7168C35.3923 49.3132 35.4903 48.8577 35.4903 48.3503H36.3378C36.3378 49.5265 36.0496 50.4663 35.473 51.1697C34.8964 51.8616 34.0661 52.2076 32.9822 52.2076ZM39.8097 47.3124C39.8097 46.3784 39.9885 45.6231 40.3459 45.0465C40.7034 44.4584 41.1589 44.0259 41.7124 43.7492C42.2775 43.4609 42.8714 43.3168 43.4941 43.3168V44.6141C42.9867 44.6141 42.4966 44.7005 42.0238 44.8735C41.5625 45.035 41.182 45.3059 40.8822 45.6865C40.5823 46.067 40.4324 46.5859 40.4324 47.2432L39.8097 47.3124ZM39.0487 52V43.3514H40.4324V52H39.0487ZM45.6716 55.667C45.4525 55.667 45.1988 55.6209 44.9105 55.5286C44.6223 55.4479 44.3167 55.3384 43.9938 55.2L44.5127 54.0411C44.7779 54.1564 45.0086 54.2429 45.2046 54.3005C45.4122 54.3582 45.5736 54.387 45.6889 54.387C46.0003 54.387 46.254 54.3005 46.45 54.1276C46.6576 53.9661 46.8305 53.7297 46.9689 53.4184L47.9549 51.0659L51.1549 43.3514H52.6424L48.4911 53.2108C48.272 53.7182 48.0414 54.1564 47.7992 54.5254C47.5686 54.8944 47.286 55.1769 46.9516 55.373C46.6172 55.569 46.1905 55.667 45.6716 55.667ZM47.5743 52L43.8381 43.3514H45.3084L48.5257 51.0486L48.9408 52H47.5743ZM61.5408 52.2422C60.8605 52.2422 60.255 52.1095 59.7246 51.8443C59.1941 51.5791 58.7732 51.2043 58.4619 50.72C58.1621 50.2357 58.0122 49.6879 58.0122 49.0768C58.0122 48.5694 58.1102 48.1139 58.3062 47.7103C58.5023 47.3067 58.7617 46.9434 59.0846 46.6205C59.419 46.2861 59.7823 45.9805 60.1743 45.7038L61.7484 44.6314C62.0367 44.4238 62.3192 44.2104 62.5959 43.9914C62.8842 43.7723 63.1264 43.5301 63.3224 43.2649C63.5185 42.9881 63.6165 42.6825 63.6165 42.3481C63.6165 41.8984 63.4608 41.5409 63.1495 41.2757C62.8496 41.0104 62.4633 40.8778 61.9905 40.8778C61.5754 40.8778 61.2179 41.0162 60.9181 41.293C60.6298 41.5697 60.4857 41.9099 60.4857 42.3135C60.4857 42.6595 60.5895 42.9708 60.797 43.2476C61.0046 43.5128 61.2641 43.8299 61.5754 44.1989L63.703 46.7589L68.0273 52H66.263L62.5268 47.5027L60.4511 44.9946C60.1859 44.6717 59.9437 44.3661 59.7246 44.0778C59.517 43.7895 59.3556 43.5013 59.2403 43.213C59.125 42.9247 59.0673 42.6249 59.0673 42.3135C59.0673 41.7946 59.1941 41.3391 59.4478 40.947C59.7131 40.5434 60.059 40.2263 60.4857 39.9957C60.9239 39.765 61.414 39.6497 61.9559 39.6497C62.5325 39.6497 63.0514 39.765 63.5127 39.9957C63.9855 40.2148 64.3545 40.5261 64.6197 40.9297C64.885 41.3333 65.0176 41.8119 65.0176 42.3654C65.0176 42.8151 64.8965 43.2418 64.6543 43.6454C64.4122 44.0375 64.0835 44.4123 63.6684 44.7697C63.2648 45.1157 62.8035 45.4674 62.2846 45.8249L61.0219 46.707C60.7682 46.88 60.5203 47.076 60.2781 47.2951C60.0359 47.5027 59.8399 47.7506 59.69 48.0389C59.5401 48.3157 59.4651 48.6559 59.4651 49.0595C59.4651 49.6245 59.6612 50.0858 60.0532 50.4432C60.4569 50.8007 60.9642 50.9795 61.5754 50.9795C62.175 50.9795 62.7343 50.8814 63.2532 50.6854C63.7722 50.4778 64.2277 50.1838 64.6197 49.8032C65.0233 49.4227 65.3289 48.9672 65.5365 48.4368C65.7556 47.9063 65.8651 47.324 65.8651 46.6897L67.2662 46.707C67.2662 47.7795 67.0183 48.7366 66.5224 49.5784C66.0381 50.4086 65.3635 51.0602 64.4987 51.533C63.6453 52.0058 62.6594 52.2422 61.5408 52.2422ZM75.0954 47.8486L74.49 46.5168L80.8554 39.8919H82.6889L75.0954 47.8486ZM74.0749 52V39.8919H75.4759V52H74.0749ZM81.1322 52L76.1678 45.8422L77.1192 44.9081L82.9138 52H81.1322ZM84.2007 52V43.3514H85.498L85.5845 44.9427V52H84.2007ZM90.272 52V47.5719L91.6558 47.053V52H90.272ZM90.272 47.5719C90.272 46.7186 90.174 46.067 89.978 45.6173C89.7819 45.1676 89.511 44.862 89.165 44.7005C88.8191 44.5276 88.427 44.4411 87.9888 44.4411C87.2277 44.4411 86.6338 44.7121 86.2072 45.2541C85.792 45.7845 85.5845 46.5398 85.5845 47.52H84.9099C84.9099 46.609 85.0425 45.8249 85.3077 45.1676C85.5729 44.5103 85.9535 44.0086 86.4493 43.6627C86.9567 43.3168 87.5679 43.1438 88.2828 43.1438C89.3322 43.1438 90.1567 43.4667 90.7564 44.1124C91.3675 44.7582 91.6673 45.7384 91.6558 47.053L90.272 47.5719ZM97.7205 52.2076C96.8787 52.2076 96.1292 52.0173 95.4719 51.6368C94.8146 51.2447 94.3014 50.7085 93.9324 50.0281C93.5634 49.3477 93.3789 48.5636 93.3789 47.6757C93.3789 46.7877 93.5577 46.0036 93.9151 45.3232C94.2841 44.6429 94.7973 44.1124 95.4546 43.7319C96.1119 43.3398 96.8557 43.1438 97.686 43.1438C98.5393 43.1438 99.2888 43.3398 99.9346 43.7319C100.592 44.1124 101.099 44.6429 101.457 45.3232C101.826 46.0036 102.01 46.7877 102.01 47.6757C102.01 48.5636 101.826 49.3477 101.457 50.0281C101.099 50.7085 100.598 51.2447 99.9519 51.6368C99.3061 52.0173 98.5623 52.2076 97.7205 52.2076ZM97.7205 50.893C98.2856 50.893 98.7814 50.7604 99.2081 50.4951C99.6348 50.2184 99.9692 49.8378 100.211 49.3535C100.454 48.8692 100.575 48.3099 100.575 47.6757C100.575 47.0414 100.448 46.4822 100.194 45.9978C99.9519 45.5135 99.6117 45.1387 99.1735 44.8735C98.7469 44.5968 98.251 44.4584 97.686 44.4584C97.1209 44.4584 96.625 44.5968 96.1984 44.8735C95.7717 45.1387 95.4315 45.5135 95.1778 45.9978C94.9357 46.4822 94.8146 47.0414 94.8146 47.6757C94.8146 48.3099 94.9357 48.8692 95.1778 49.3535C95.4315 49.8378 95.7775 50.2184 96.2157 50.4951C96.6539 50.7604 97.1555 50.893 97.7205 50.893ZM111.598 52L114.521 43.3514H115.922L112.981 52H111.598ZM105.716 52L108.64 43.3514H109.937L107.048 52H105.716ZM105.647 52L102.707 43.3514H104.108L106.996 52H105.647ZM111.598 52L108.709 43.3514H110.024L112.912 52H111.598ZM117.309 52L117.343 39.8919H118.727L118.693 52H117.309ZM124.966 52.2076C124.124 52.2076 123.38 52.0173 122.735 51.6368C122.1 51.2447 121.599 50.7085 121.23 50.0281C120.861 49.3477 120.676 48.5636 120.676 47.6757C120.676 46.7877 120.855 46.0036 121.212 45.3232C121.581 44.6429 122.089 44.1124 122.735 43.7319C123.38 43.3398 124.113 43.1438 124.931 43.1438C125.739 43.1438 126.436 43.3456 127.024 43.7492C127.612 44.1413 128.068 44.6948 128.391 45.4097C128.714 46.1247 128.875 46.9665 128.875 47.9351H127.491C127.491 47.1971 127.393 46.5686 127.197 46.0497C127.001 45.5193 126.713 45.1099 126.332 44.8216C125.952 44.5333 125.479 44.3892 124.914 44.3892C124.349 44.3892 123.853 44.5276 123.426 44.8043C123.011 45.0695 122.688 45.4501 122.458 45.9459C122.227 46.4418 122.112 47.0241 122.112 47.693C122.112 48.3503 122.239 48.9211 122.492 49.4054C122.746 49.8782 123.092 50.253 123.53 50.5297C123.968 50.795 124.47 50.9276 125.035 50.9276C125.646 50.9276 126.159 50.7834 126.575 50.4951C126.99 50.2068 127.313 49.8321 127.543 49.3708L128.771 49.9762C128.541 50.4259 128.241 50.818 127.872 51.1524C127.514 51.4868 127.094 51.7463 126.609 51.9308C126.125 52.1153 125.577 52.2076 124.966 52.2076ZM121.61 47.9351V46.7416H128.028V47.9351H121.61ZM137.07 52L137.001 50.3914V39.8919H138.385V52H137.07ZM134.078 52.2076C133.305 52.2076 132.625 52.0173 132.037 51.6368C131.449 51.2562 130.987 50.7258 130.653 50.0454C130.33 49.3535 130.169 48.5636 130.169 47.6757C130.169 46.7762 130.33 45.9863 130.653 45.3059C130.987 44.6256 131.449 44.0951 132.037 43.7146C132.625 43.3341 133.305 43.1438 134.078 43.1438C134.804 43.1438 135.439 43.3341 135.981 43.7146C136.534 44.0951 136.961 44.6256 137.261 45.3059C137.56 45.9863 137.71 46.7762 137.71 47.6757C137.71 48.5636 137.56 49.3535 137.261 50.0454C136.961 50.7258 136.534 51.2562 135.981 51.6368C135.439 52.0173 134.804 52.2076 134.078 52.2076ZM134.389 50.9449C134.897 50.9449 135.346 50.8065 135.738 50.5297C136.13 50.253 136.436 49.8667 136.655 49.3708C136.886 48.875 137.001 48.3099 137.001 47.6757C137.001 47.0414 136.886 46.4764 136.655 45.9805C136.436 45.4847 136.13 45.0984 135.738 44.8216C135.346 44.5449 134.891 44.4065 134.372 44.4065C133.83 44.4065 133.346 44.5449 132.919 44.8216C132.504 45.0984 132.175 45.4847 131.933 45.9805C131.691 46.4764 131.57 47.0414 131.57 47.6757C131.57 48.3099 131.691 48.875 131.933 49.3708C132.175 49.8667 132.51 50.253 132.936 50.5297C133.363 50.8065 133.847 50.9449 134.389 50.9449ZM144.265 55.667C143.711 55.667 143.204 55.6094 142.743 55.4941C142.293 55.3903 141.907 55.2692 141.584 55.1308C141.272 55.004 141.048 54.8944 140.909 54.8022L141.428 53.6778C141.578 53.7586 141.791 53.8566 142.068 53.9719C142.345 54.0987 142.668 54.2025 143.037 54.2832C143.417 54.3755 143.821 54.4216 144.248 54.4216C144.801 54.4216 145.297 54.3063 145.735 54.0757C146.185 53.8566 146.531 53.5049 146.773 53.0205C147.027 52.5477 147.154 51.9366 147.154 51.187V43.3514H148.537V51.1697C148.537 52.1614 148.353 52.9917 147.984 53.6605C147.615 54.3294 147.107 54.831 146.462 55.1654C145.816 55.4998 145.084 55.667 144.265 55.667ZM144.213 51.9308C143.44 51.9308 142.76 51.7463 142.172 51.3773C141.584 51.0083 141.123 50.4951 140.788 49.8378C140.465 49.169 140.304 48.4079 140.304 47.5546C140.304 46.6782 140.465 45.9114 140.788 45.2541C141.123 44.5852 141.584 44.0663 142.172 43.6973C142.76 43.3283 143.44 43.1438 144.213 43.1438C144.939 43.1438 145.574 43.3283 146.116 43.6973C146.658 44.0663 147.079 44.5852 147.378 45.2541C147.69 45.9114 147.845 46.6782 147.845 47.5546C147.845 48.4195 147.69 49.1805 147.378 49.8378C147.079 50.4951 146.658 51.0083 146.116 51.3773C145.574 51.7463 144.939 51.9308 144.213 51.9308ZM144.542 50.7373C145.049 50.7373 145.499 50.5989 145.891 50.3222C146.283 50.0454 146.588 49.6706 146.808 49.1978C147.027 48.7135 147.136 48.1542 147.136 47.52C147.136 46.9088 147.021 46.3668 146.79 45.8941C146.571 45.4097 146.266 45.035 145.874 44.7697C145.493 44.493 145.043 44.3546 144.524 44.3546C143.982 44.3546 143.498 44.493 143.071 44.7697C142.656 45.035 142.328 45.4097 142.085 45.8941C141.855 46.3668 141.739 46.9088 141.739 47.52C141.739 48.1542 141.861 48.7135 142.103 49.1978C142.345 49.6706 142.674 50.0454 143.089 50.3222C143.515 50.5989 144 50.7373 144.542 50.7373ZM154.561 52.2076C153.719 52.2076 152.975 52.0173 152.329 51.6368C151.695 51.2447 151.193 50.7085 150.824 50.0281C150.455 49.3477 150.271 48.5636 150.271 47.6757C150.271 46.7877 150.45 46.0036 150.807 45.3232C151.176 44.6429 151.683 44.1124 152.329 43.7319C152.975 43.3398 153.707 43.1438 154.526 43.1438C155.333 43.1438 156.031 43.3456 156.619 43.7492C157.207 44.1413 157.663 44.6948 157.985 45.4097C158.308 46.1247 158.47 46.9665 158.47 47.9351H157.086C157.086 47.1971 156.988 46.5686 156.792 46.0497C156.596 45.5193 156.308 45.1099 155.927 44.8216C155.546 44.5333 155.074 44.3892 154.509 44.3892C153.944 44.3892 153.448 44.5276 153.021 44.8043C152.606 45.0695 152.283 45.4501 152.052 45.9459C151.822 46.4418 151.706 47.0241 151.706 47.693C151.706 48.3503 151.833 48.9211 152.087 49.4054C152.341 49.8782 152.687 50.253 153.125 50.5297C153.563 50.795 154.065 50.9276 154.63 50.9276C155.241 50.9276 155.754 50.7834 156.169 50.4951C156.584 50.2068 156.907 49.8321 157.138 49.3708L158.366 49.9762C158.135 50.4259 157.836 50.818 157.466 51.1524C157.109 51.4868 156.688 51.7463 156.204 51.9308C155.719 52.1153 155.172 52.2076 154.561 52.2076ZM151.205 47.9351V46.7416H157.622V47.9351H151.205Z" fill="black"/>
</svg>
