<?xml version="1.0" standalone="no"?><svg xmlns:xlink="http://www.w3.org/1999/xlink" xmlns="http://www.w3.org/2000/svg" viewBox="0 0 1000 625.0061613383413" preserveAspectRatio="xMaxYMax slice"><g transform="scale(0.985814134603062)"><rect x="0" y="0" width="1014.4" height="634" fill="#ffffff"/><rect x="0" y="0" width="63.4" height="63.4" fill="#60c7ff"/><rect x="0" y="0" width="63.4" height="63.4" fill="#adbcf6"/><rect x="63.4" y="0" width="63.4" height="63.4" fill="#7dd1ff"/><rect x="63.4" y="0" width="63.4" height="63.4" fill="#e6eafc"/><rect x="126.8" y="0" width="63.4" height="63.4" fill="#5c79ee"/><path d="M 126.8 63.4 A 63.4 63.4 0 0 1  190.2 0 L 126.8 63.4 A 63.4 63.4 0 0 0 190.2 0" fill="#cbd4f9"/><rect x="190.2" y="0" width="63.4" height="63.4" fill="#ffffff"/><rect x="190.2" y="0" width="31.7" height="31.7" fill="#67caff"/><path d="M 190.2 0 A 31.7 31.7 0 0 0 221.89999999999998 31.7 L 221.89999999999998 0" fill="#66c9ff"/><rect x="221.9" y="0" width="31.7" height="31.7" fill="#c1ccf8"/><path d="M 221.9 31.7 A 31.7 31.7 0 0 0 253.6 0 L 221.9 0" fill="#6dccff"/><rect x="190.2" y="31.7" width="31.7" height="31.7" fill="#a0b1f5"/><path d="M 190.2 63.4 A 31.7 31.7 0 0 1  221.89999999999998 31.7 L 221.89999999999998 63.4" fill="#738cf0"/><rect x="221.9" y="31.7" width="31.7" height="31.7" fill="#b3c0f7"/><path d="M 221.9 31.7 A 31.7 31.7 0 0 1 253.6 63.4 L 221.9 63.4" fill="#cdd6fa"/><rect x="253.6" y="0" width="63.4" height="63.4" fill="#ffffff"/><rect x="253.6" y="0" width="31.7" height="31.7" fill="#eef9ff"/><polygon points="285.3,0 285.3,31.7 253.6,31.7" fill="#d2efff"/><rect x="285.3" y="0" width="31.7" height="31.7" fill="#a9e1ff"/><polygon points="285.3,0 317,31.7 285.3,31.7" fill="#d2efff"/><rect x="253.6" y="31.7" width="31.7" height="31.7" fill="#f9fdff"/><polygon points="253.6,31.7 285.3,31.7 253.6,63.4" fill="#c5cff9"/><rect x="285.3" y="31.7" width="31.7" height="31.7" fill="#4ec1ff"/><polygon points="285.3,31.7 317,31.7 317,63.4" fill="#4fc2ff"/><rect x="317" y="0" width="63.4" height="63.4" fill="#8fd8ff"/><path d="M 317 0 A 63.4 63.4 0 0 1 380.4 63.4 L 317 63.4" fill="#f2fbff"/><rect x="380.4" y="0" width="63.4" height="63.4" fill="#ffffff"/><rect x="380.4" y="0" width="31.7" height="31.7" fill="#879cf2"/><polygon points="412.09999999999997,0 412.09999999999997,31.7 380.4,31.7" fill="#93a6f4"/><rect x="412.1" y="0" width="31.7" height="31.7" fill="#5170ed"/><polygon points="412.1,0 443.8,0 412.1,31.7" fill="#d5f0ff"/><rect x="380.4" y="31.7" width="31.7" height="31.7" fill="#9fddff"/><polygon points="380.4,31.7 412.09999999999997,31.7 412.09999999999997,63.4" fill="#617dee"/><rect x="412.1" y="31.7" width="31.7" height="31.7" fill="#bbc7f8"/><polygon points="412.1,31.7 443.8,63.4 412.1,63.4" fill="#9dddff"/><rect x="443.8" y="0" width="63.4" height="63.4" fill="#6883ef"/><rect x="443.8" y="0" width="63.4" height="63.4" fill="#aae1ff"/><rect x="507.2" y="0" width="63.4" height="63.4" fill="#506fed"/><polygon points="507.2,0 570.6,63.4 507.2,63.4" fill="#8197f2"/><rect x="570.6" y="0" width="63.4" height="63.4" fill="#65c9ff"/><rect x="570.6" y="0" width="63.4" height="63.4" fill="#c2cdf9"/><rect x="634" y="0" width="63.4" height="63.4" fill="#9bdcff"/><polygon points="634,0 697.4,0 634,63.4" fill="#d1efff"/><rect x="697.4" y="0" width="63.4" height="63.4" fill="#47bfff"/><path d="M 697.4 63.4 A 63.4 63.4 0 0 1  760.8 0 L 760.8 63.4" fill="#dbe1fb"/><rect x="760.8" y="0" width="63.4" height="63.4" fill="#ffffff"/><rect x="760.8" y="0" width="31.7" height="31.7" fill="#dbe1fb"/><polygon points="792.5,0 792.5,31.7 760.8,31.7" fill="#f0faff"/><rect x="792.5" y="0" width="31.7" height="31.7" fill="#dbe1fb"/><polygon points="792.5,0 824.2,31.7 792.5,31.7" fill="#7089f0"/><rect x="760.8" y="31.7" width="31.7" height="31.7" fill="#8dd7ff"/><polygon points="760.8,31.7 792.5,31.7 760.8,63.4" fill="#8cd7ff"/><rect x="792.5" y="31.7" width="31.7" height="31.7" fill="#5b79ee"/><polygon points="792.5,31.7 824.2,31.7 824.2,63.4" fill="#fafdff"/><rect x="824.2" y="0" width="63.4" height="63.4" fill="#7fd2ff"/><path d="M 824.2 0 A 63.4 63.4 0 0 1  887.6 63.4 L 824.2 0 A 63.4 63.4 0 0 0 887.6 63.4" fill="#5ec7ff"/><rect x="887.6" y="0" width="63.4" height="63.4" fill="#c3cdf9"/><path d="M 887.6 0 A 63.4 63.4 0 0 0 951 63.4 L 951 0" fill="#9aacf4"/><rect x="951" y="0" width="63.4" height="63.4" fill="#bac6f8"/><path d="M 951 0 A 63.4 63.4 0 0 1 1014.4 63.4 L 951 63.4" fill="#6782ef"/><rect x="0" y="63.4" width="63.4" height="63.4" fill="#b8c5f8"/><path d="M 0 126.8 A 63.4 63.4 0 0 0 63.4 63.4 L 0 63.4" fill="#f9fafe"/><rect x="63.4" y="63.4" width="63.4" height="63.4" fill="#ffffff"/><rect x="63.4" y="63.4" width="31.7" height="31.7" fill="#c7ecff"/><path d="M 63.4 63.4 A 31.7 31.7 0 0 0 95.1 95.1 L 95.1 63.4" fill="#9adcff"/><rect x="95.1" y="63.4" width="31.7" height="31.7" fill="#42bdff"/><path d="M 95.1 95.1 A 31.7 31.7 0 0 0 126.8 63.4 L 95.1 63.4" fill="#6681ef"/><rect x="63.4" y="95.1" width="31.7" height="31.7" fill="#cdeeff"/><path d="M 63.4 126.8 A 31.7 31.7 0 0 1  95.1 95.1 L 95.1 126.8" fill="#e8ecfd"/><rect x="95.1" y="95.1" width="31.7" height="31.7" fill="#6782ef"/><path d="M 95.1 95.1 A 31.7 31.7 0 0 1 126.8 126.8 L 95.1 126.8" fill="#6681ef"/><rect x="126.8" y="63.4" width="63.4" height="63.4" fill="#c3cef9"/><polygon points="190.2,63.4 190.2,126.8 126.8,126.8" fill="#bfe9ff"/><rect x="190.2" y="63.4" width="63.4" height="63.4" fill="#c2eaff"/><rect x="190.2" y="63.4" width="63.4" height="63.4" fill="#afe3ff"/><rect x="253.6" y="63.4" width="63.4" height="63.4" fill="#d2dafa"/><polygon points="253.6,63.4 317,63.4 253.6,126.8" fill="#6681ef"/><rect x="317" y="63.4" width="63.4" height="63.4" fill="#ffffff"/><rect x="317" y="63.4" width="31.7" height="31.7" fill="#89d6ff"/><path d="M 317 63.4 A 31.7 31.7 0 0 0 348.7 95.1 L 348.7 63.4" fill="#bfe9ff"/><rect x="348.7" y="63.4" width="31.7" height="31.7" fill="#6883ef"/><path d="M 348.7 95.1 A 31.7 31.7 0 0 0 380.4 63.4 L 348.7 63.4" fill="#6acbff"/><rect x="317" y="95.1" width="31.7" height="31.7" fill="#72ceff"/><path d="M 317 126.8 A 31.7 31.7 0 0 1  348.7 95.1 L 348.7 126.8" fill="#607cee"/><rect x="348.7" y="95.1" width="31.7" height="31.7" fill="#4c6cec"/><path d="M 348.7 95.1 A 31.7 31.7 0 0 1 380.4 126.8 L 348.7 126.8" fill="#c5cff9"/><rect x="380.4" y="63.4" width="63.4" height="63.4" fill="#ffffff"/><rect x="380.4" y="63.4" width="31.7" height="31.7" fill="#88d6ff"/><path d="M 380.4 95.1 A 31.7 31.7 0 0 1  412.09999999999997 63.4 L 412.09999999999997 95.1" fill="#607cee"/><rect x="412.1" y="63.4" width="31.7" height="31.7" fill="#c0e9ff"/><path d="M 412.1 63.4 A 31.7 31.7 0 0 1 443.8 95.1 L 412.1 95.1" fill="#f6fcff"/><rect x="380.4" y="95.1" width="31.7" height="31.7" fill="#98dbff"/><path d="M 380.4 95.1 A 31.7 31.7 0 0 0 412.09999999999997 126.8 L 412.09999999999997 95.1" fill="#d8f1ff"/><rect x="412.1" y="95.1" width="31.7" height="31.7" fill="#889df2"/><path d="M 412.1 126.8 A 31.7 31.7 0 0 0 443.8 95.1 L 412.1 95.1" fill="#94daff"/><rect x="443.8" y="63.4" width="63.4" height="63.4" fill="#c8d2f9"/><polygon points="507.2,63.4 507.2,126.8 443.8,126.8" fill="#607cee"/><rect x="507.2" y="63.4" width="63.4" height="63.4" fill="#ffffff"/><rect x="507.2" y="63.4" width="31.7" height="31.7" fill="#7991f1"/><circle cx="523.05" cy="79.25" r="15.85" fill="#7bd1ff"/><rect x="538.9" y="63.4" width="31.7" height="31.7" fill="#8ba0f3"/><rect x="538.9" y="63.4" width="31.7" height="31.7" fill="#6acbff"/><rect x="507.2" y="95.1" width="31.7" height="31.7" fill="#59c5ff"/><circle cx="523.05" cy="110.94999999999999" r="15.85" fill="#dbf2ff"/><rect x="538.9" y="95.1" width="31.7" height="31.7" fill="#93d9ff"/><rect x="538.9" y="95.1" width="31.7" height="31.7" fill="#78d0ff"/><rect x="570.6" y="63.4" width="63.4" height="63.4" fill="#ffffff"/><rect x="570.6" y="63.4" width="31.7" height="31.7" fill="#b4e5ff"/><polygon points="602.3000000000001,63.4 602.3000000000001,95.1 570.6,95.1" fill="#506fec"/><rect x="602.3" y="63.4" width="31.7" height="31.7" fill="#e6eafc"/><polygon points="602.3,63.4 634,95.1 602.3,95.1" fill="#6983ef"/><rect x="570.6" y="95.1" width="31.7" height="31.7" fill="#f2faff"/><polygon points="570.6,95.1 602.3000000000001,95.1 602.3000000000001,126.8" fill="#f1f4fe"/><rect x="602.3" y="95.1" width="31.7" height="31.7" fill="#d1d9fa"/><polygon points="602.3,95.1 634,95.1 602.3,126.8" fill="#b5c2f7"/><rect x="634" y="63.4" width="63.4" height="63.4" fill="#fbfcff"/><rect x="634" y="63.4" width="63.4" height="63.4" fill="#c1eaff"/><rect x="697.4" y="63.4" width="63.4" height="63.4" fill="#ffffff"/><rect x="697.4" y="63.4" width="31.7" height="31.7" fill="#bee8ff"/><path d="M 697.4 95.1 A 31.7 31.7 0 0 0 729.1 63.4 L 697.4 63.4" fill="#feffff"/><rect x="729.1" y="63.4" width="31.7" height="31.7" fill="#60c7ff"/><path d="M 729.1 63.4 A 31.7 31.7 0 0 0 760.8000000000001 95.1 L 760.8000000000001 63.4" fill="#80d3ff"/><rect x="697.4" y="95.1" width="31.7" height="31.7" fill="#c2eaff"/><path d="M 697.4 95.1 A 31.7 31.7 0 0 1 729.1 126.8 L 697.4 126.8" fill="#a9b9f6"/><rect x="729.1" y="95.1" width="31.7" height="31.7" fill="#fcfeff"/><path d="M 729.1 126.8 A 31.7 31.7 0 0 1  760.8000000000001 95.1 L 760.8000000000001 126.8" fill="#c7ebff"/><rect x="760.8" y="63.4" width="63.4" height="63.4" fill="#ffffff"/><rect x="760.8" y="63.4" width="31.7" height="31.7" fill="#5976ed"/><path d="M 760.8 63.4 A 31.7 31.7 0 0 1 792.5 95.1 L 760.8 95.1" fill="#54c3ff"/><rect x="792.5" y="63.4" width="31.7" height="31.7" fill="#9dddff"/><path d="M 792.5 95.1 A 31.7 31.7 0 0 1  824.2 63.4 L 824.2 95.1" fill="#79d0ff"/><rect x="760.8" y="95.1" width="31.7" height="31.7" fill="#eaf8ff"/><path d="M 760.8 126.8 A 31.7 31.7 0 0 0 792.5 95.1 L 760.8 95.1" fill="#5fc7ff"/><rect x="792.5" y="95.1" width="31.7" height="31.7" fill="#45beff"/><path d="M 792.5 95.1 A 31.7 31.7 0 0 0 824.2 126.8 L 824.2 95.1" fill="#c9ecff"/><rect x="824.1999999999999" y="63.4" width="63.4" height="63.4" fill="#ffffff"/><rect x="824.2" y="63.4" width="31.7" height="31.7" fill="#e5f6ff"/><path d="M 824.2 95.1 A 31.7 31.7 0 0 1  855.9000000000001 63.4 L 855.9000000000001 95.1" fill="#e1e7fc"/><rect x="855.9" y="63.4" width="31.7" height="31.7" fill="#b6c3f7"/><path d="M 855.9 63.4 A 31.7 31.7 0 0 1 887.6 95.1 L 855.9 95.1" fill="#c4eaff"/><rect x="824.2" y="95.1" width="31.7" height="31.7" fill="#7dd2ff"/><path d="M 824.2 95.1 A 31.7 31.7 0 0 0 855.9000000000001 126.8 L 855.9000000000001 95.1" fill="#8b9ff3"/><rect x="855.9" y="95.1" width="31.7" height="31.7" fill="#78d0ff"/><path d="M 855.9 126.8 A 31.7 31.7 0 0 0 887.6 95.1 L 855.9 95.1" fill="#4fc2ff"/><rect x="887.6" y="63.4" width="63.4" height="63.4" fill="#ffffff"/><rect x="887.6" y="63.4" width="31.7" height="31.7" fill="#f9fafe"/><path d="M 887.6 95.1 A 31.7 31.7 0 0 1  919.3000000000001 63.4 L 919.3000000000001 95.1" fill="#e7ebfc"/><rect x="919.3" y="63.4" width="31.7" height="31.7" fill="#5876ed"/><path d="M 919.3 63.4 A 31.7 31.7 0 0 1 951 95.1 L 919.3 95.1" fill="#d3dbfa"/><rect x="887.6" y="95.1" width="31.7" height="31.7" fill="#86d5ff"/><path d="M 887.6 95.1 A 31.7 31.7 0 0 0 919.3000000000001 126.8 L 919.3000000000001 95.1" fill="#76cfff"/><rect x="919.3" y="95.1" width="31.7" height="31.7" fill="#63c9ff"/><path d="M 919.3 126.8 A 31.7 31.7 0 0 0 951 95.1 L 919.3 95.1" fill="#9dddff"/><rect x="951" y="63.4" width="63.4" height="63.4" fill="#89d6ff"/><path d="M 951 126.8 A 63.4 63.4 0 0 1  1014.4 63.4 L 951 126.8 A 63.4 63.4 0 0 0 1014.4 63.4" fill="#8a9ef3"/><rect x="0" y="126.8" width="63.4" height="63.4" fill="#ffffff"/><rect x="0" y="126.8" width="31.7" height="31.7" fill="#6a84ef"/><polygon points="31.7,126.8 31.7,158.5 0,158.5" fill="#89d6ff"/><rect x="31.7" y="126.8" width="31.7" height="31.7" fill="#81d3ff"/><polygon points="31.7,126.8 63.4,158.5 31.7,158.5" fill="#51c2ff"/><rect x="0" y="158.5" width="31.7" height="31.7" fill="#54c3ff"/><polygon points="0,158.5 31.7,158.5 0,190.2" fill="#ebeefd"/><rect x="31.7" y="158.5" width="31.7" height="31.7" fill="#f9fafe"/><polygon points="31.7,158.5 63.4,158.5 63.4,190.2" fill="#b0e3ff"/><rect x="63.4" y="126.8" width="63.4" height="63.4" fill="#4bc0ff"/><polygon points="63.4,126.8 126.8,126.8 63.4,190.2" fill="#d4f0ff"/><rect x="126.8" y="126.8" width="63.4" height="63.4" fill="#ffffff"/><rect x="126.8" y="126.8" width="31.7" height="31.7" fill="#7b92f1"/><path d="M 126.8 158.5 A 31.7 31.7 0 0 0 158.5 126.8 L 126.8 126.8" fill="#dfe4fc"/><rect x="158.5" y="126.8" width="31.7" height="31.7" fill="#f2f5fe"/><path d="M 158.5 126.8 A 31.7 31.7 0 0 0 190.2 158.5 L 190.2 126.8" fill="#c2cdf9"/><rect x="126.8" y="158.5" width="31.7" height="31.7" fill="#738cf0"/><path d="M 126.8 158.5 A 31.7 31.7 0 0 1 158.5 190.2 L 126.8 190.2" fill="#47bfff"/><rect x="158.5" y="158.5" width="31.7" height="31.7" fill="#fdfeff"/><path d="M 158.5 190.2 A 31.7 31.7 0 0 1  190.2 158.5 L 190.2 190.2" fill="#64c9ff"/><rect x="190.2" y="126.8" width="63.4" height="63.4" fill="#51c2ff"/><polygon points="190.2,126.8 253.6,126.8 253.6,190.2" fill="#b9e7ff"/><rect x="253.6" y="126.8" width="63.4" height="63.4" fill="#ffffff"/><rect x="253.6" y="126.8" width="31.7" height="31.7" fill="#5b78ee"/><polygon points="285.3,126.8 285.3,158.5 253.6,158.5" fill="#c2eaff"/><rect x="285.3" y="126.8" width="31.7" height="31.7" fill="#b9c5f8"/><polygon points="285.3,126.8 317,126.8 285.3,158.5" fill="#d6f1ff"/><rect x="253.6" y="158.5" width="31.7" height="31.7" fill="#caedff"/><polygon points="253.6,158.5 285.3,158.5 285.3,190.2" fill="#a7e0ff"/><rect x="285.3" y="158.5" width="31.7" height="31.7" fill="#fcfeff"/><polygon points="285.3,158.5 317,190.2 285.3,190.2" fill="#93a6f4"/><rect x="317" y="126.8" width="63.4" height="63.4" fill="#ffffff"/><rect x="317" y="126.8" width="31.7" height="31.7" fill="#fefeff"/><path d="M 317 158.5 A 31.7 31.7 0 0 1  348.7 126.8 L 348.7 158.5" fill="#61c8ff"/><rect x="348.7" y="126.8" width="31.7" height="31.7" fill="#c4eaff"/><path d="M 348.7 126.8 A 31.7 31.7 0 0 1 380.4 158.5 L 348.7 158.5" fill="#91d8ff"/><rect x="317" y="158.5" width="31.7" height="31.7" fill="#9eaff5"/><path d="M 317 158.5 A 31.7 31.7 0 0 0 348.7 190.2 L 348.7 158.5" fill="#d2dafa"/><rect x="348.7" y="158.5" width="31.7" height="31.7" fill="#5876ed"/><path d="M 348.7 190.2 A 31.7 31.7 0 0 0 380.4 158.5 L 348.7 158.5" fill="#9badf4"/><rect x="380.4" y="126.8" width="63.4" height="63.4" fill="#eef1fd"/><polygon points="380.4,126.8 443.79999999999995,126.8 443.79999999999995,190.2" fill="#89d6ff"/><rect x="443.8" y="126.8" width="63.4" height="63.4" fill="#5f7bee"/><path d="M 443.8 190.2 A 63.4 63.4 0 0 0 507.2 126.8 L 443.8 126.8" fill="#b2c0f7"/><rect x="507.2" y="126.8" width="63.4" height="63.4" fill="#ffffff"/><rect x="507.2" y="126.8" width="31.7" height="31.7" fill="#5b78ee"/><path d="M 507.2 158.5 A 31.7 31.7 0 0 1 538.9 126.8 L 538.9 134.725 A 23.775 23.775 0 0 0 515.125 158.5" fill="#eff1fd"/><rect x="538.9" y="126.8" width="31.7" height="31.7" fill="#dee4fc"/><path d="M 538.9 126.8 A 31.7 31.7 0 0 1 570.6 158.5 L 562.675 158.5 A 23.775 23.775 0 0 0 538.9 134.725" fill="#4e6dec"/><rect x="507.2" y="158.5" width="31.7" height="31.7" fill="#e1e6fc"/><path d="M 507.2 158.5 A 31.7 31.7 0 0 0 538.9 190.2 L 538.9 182.275 A 23.775 23.775 0 0 1 515.125 158.5" fill="#dde3fb"/><rect x="538.9" y="158.5" width="31.7" height="31.7" fill="#a4dfff"/><path d="M 538.9 190.2 A 31.7 31.7 0 0 0 570.6 158.5 L 562.675 158.5 A 23.775 23.775 0 0 1 538.9 182.275" fill="#9badf4"/><rect x="570.6" y="126.8" width="63.4" height="63.4" fill="#ffffff"/><rect x="570.6" y="126.8" width="31.7" height="31.7" fill="#a3dfff"/><polygon points="602.3000000000001,126.8 602.3000000000001,158.5 570.6,158.5" fill="#e0e5fc"/><rect x="602.3" y="126.8" width="31.7" height="31.7" fill="#63c9ff"/><polygon points="602.3,126.8 634,158.5 602.3,158.5" fill="#a4dfff"/><rect x="570.6" y="158.5" width="31.7" height="31.7" fill="#e3e8fc"/><polygon points="570.6,158.5 602.3000000000001,158.5 570.6,190.2" fill="#6d87f0"/><rect x="602.3" y="158.5" width="31.7" height="31.7" fill="#e1f4ff"/><polygon points="602.3,158.5 634,158.5 634,190.2" fill="#b9e6ff"/><rect x="634" y="126.8" width="63.4" height="63.4" fill="#ffffff"/><rect x="634" y="126.8" width="31.7" height="31.7" fill="#a9b8f6"/><path d="M 634 158.5 A 31.7 31.7 0 0 0 665.7 126.8 L 634 126.8" fill="#c2cdf9"/><rect x="665.7" y="126.8" width="31.7" height="31.7" fill="#fbfeff"/><path d="M 665.7 126.8 A 31.7 31.7 0 0 0 697.4000000000001 158.5 L 697.4000000000001 126.8" fill="#748df0"/><rect x="634" y="158.5" width="31.7" height="31.7" fill="#f4fbff"/><path d="M 634 158.5 A 31.7 31.7 0 0 1 665.7 190.2 L 634 190.2" fill="#d8f1ff"/><rect x="665.7" y="158.5" width="31.7" height="31.7" fill="#5674ed"/><path d="M 665.7 190.2 A 31.7 31.7 0 0 1  697.4000000000001 158.5 L 697.4000000000001 190.2" fill="#5f7cee"/><rect x="697.4" y="126.8" width="63.4" height="63.4" fill="#ffffff"/><rect x="697.4" y="126.8" width="63.4" height="63.4" fill="#bbe7ff"/><rect x="760.8" y="126.8" width="63.4" height="63.4" fill="#7089f0"/><polygon points="760.8,126.8 824.1999999999999,126.8 760.8,190.2" fill="#95a8f4"/><rect x="824.1999999999999" y="126.8" width="63.4" height="63.4" fill="#ffffff"/><rect x="824.2" y="126.8" width="31.7" height="31.7" fill="#eceffd"/><path d="M 824.2 158.5 A 31.7 31.7 0 0 1  855.9000000000001 126.8 L 855.9000000000001 158.5" fill="#fafdff"/><rect x="855.9" y="126.8" width="31.7" height="31.7" fill="#e6ebfc"/><path d="M 855.9 126.8 A 31.7 31.7 0 0 1 887.6 158.5 L 855.9 158.5" fill="#58c5ff"/><rect x="824.2" y="158.5" width="31.7" height="31.7" fill="#eaf8ff"/><path d="M 824.2 158.5 A 31.7 31.7 0 0 0 855.9000000000001 190.2 L 855.9000000000001 158.5" fill="#637eee"/><rect x="855.9" y="158.5" width="31.7" height="31.7" fill="#7ed2ff"/><path d="M 855.9 190.2 A 31.7 31.7 0 0 0 887.6 158.5 L 855.9 158.5" fill="#c6ebff"/><rect x="887.6" y="126.8" width="63.4" height="63.4" fill="#ffffff"/><rect x="887.6" y="126.8" width="31.7" height="31.7" fill="#a2b2f5"/><path d="M 887.6 158.5 A 31.7 31.7 0 0 1 919.3000000000001 126.8 L 919.3000000000001 134.725 A 23.775 23.775 0 0 0 895.525 158.5" fill="#dbe2fb"/><rect x="919.3" y="126.8" width="31.7" height="31.7" fill="#6480ef"/><path d="M 919.3 126.8 A 31.7 31.7 0 0 1 951 158.5 L 943.0749999999999 158.5 A 23.775 23.775 0 0 0 919.3 134.725" fill="#95a8f4"/><rect x="887.6" y="158.5" width="31.7" height="31.7" fill="#9bdcff"/><path d="M 887.6 158.5 A 31.7 31.7 0 0 0 919.3000000000001 190.2 L 919.3000000000001 182.275 A 23.775 23.775 0 0 1 895.525 158.5" fill="#59c5ff"/><rect x="919.3" y="158.5" width="31.7" height="31.7" fill="#85d4ff"/><path d="M 919.3 190.2 A 31.7 31.7 0 0 0 951 158.5 L 943.0749999999999 158.5 A 23.775 23.775 0 0 1 919.3 182.275" fill="#69caff"/><rect x="951" y="126.8" width="63.4" height="63.4" fill="#ffffff"/><rect x="951" y="126.8" width="31.7" height="31.7" fill="#53c3ff"/><polygon points="982.7,126.8 982.7,158.5 951,158.5" fill="#fbfcff"/><rect x="982.7" y="126.8" width="31.7" height="31.7" fill="#dbe1fb"/><polygon points="982.7,126.8 1014.4000000000001,158.5 982.7,158.5" fill="#647fef"/><rect x="951" y="158.5" width="31.7" height="31.7" fill="#e8ecfd"/><polygon points="951,158.5 982.7,158.5 982.7,190.2" fill="#62c8ff"/><rect x="982.7" y="158.5" width="31.7" height="31.7" fill="#9badf4"/><polygon points="982.7,158.5 1014.4000000000001,158.5 982.7,190.2" fill="#e5f6ff"/><rect x="0" y="190.2" width="63.4" height="63.4" fill="#ffffff"/><rect x="0" y="190.2" width="31.7" height="31.7" fill="#b0bef7"/><path d="M 0 221.89999999999998 A 31.7 31.7 0 0 1  31.7 190.2 L 31.7 221.89999999999998" fill="#65c9ff"/><rect x="31.7" y="190.2" width="31.7" height="31.7" fill="#59c5ff"/><path d="M 31.7 190.2 A 31.7 31.7 0 0 1 63.4 221.89999999999998 L 31.7 221.89999999999998" fill="#b2e4ff"/><rect x="0" y="221.9" width="31.7" height="31.7" fill="#b7c4f7"/><path d="M 0 221.9 A 31.7 31.7 0 0 0 31.7 253.6 L 31.7 221.9" fill="#90a3f3"/><rect x="31.7" y="221.9" width="31.7" height="31.7" fill="#e0f4ff"/><path d="M 31.7 253.6 A 31.7 31.7 0 0 0 63.4 221.9 L 31.7 221.9" fill="#c2eaff"/><rect x="63.4" y="190.2" width="63.4" height="63.4" fill="#ffffff"/><rect x="63.4" y="190.2" width="31.7" height="31.7" fill="#5372ed"/><polygon points="95.1,190.2 95.1,221.89999999999998 63.4,221.89999999999998" fill="#f6f8fe"/><rect x="95.1" y="190.2" width="31.7" height="31.7" fill="#6bcbff"/><polygon points="95.1,190.2 126.8,221.89999999999998 95.1,221.89999999999998" fill="#a6b5f6"/><rect x="63.4" y="221.9" width="31.7" height="31.7" fill="#50c2ff"/><polygon points="63.4,221.9 95.1,221.9 63.4,253.6" fill="#70cdff"/><rect x="95.1" y="221.9" width="31.7" height="31.7" fill="#9eb0f5"/><polygon points="95.1,221.9 126.8,221.9 126.8,253.6" fill="#7d94f1"/><rect x="126.8" y="190.2" width="63.4" height="63.4" fill="#bfcaf8"/><path d="M 126.8 190.2 A 63.4 63.4 0 0 1  190.2 253.6 L 126.8 190.2 A 63.4 63.4 0 0 0 190.2 253.6" fill="#6681ef"/><rect x="190.2" y="190.2" width="63.4" height="63.4" fill="#c4ebff"/><path d="M 190.2 190.2 A 63.4 63.4 0 0 1  253.6 253.6 L 190.2 190.2 A 63.4 63.4 0 0 0 253.6 253.6" fill="#6c86f0"/><rect x="253.6" y="190.2" width="63.4" height="63.4" fill="#8299f2"/><rect x="253.6" y="190.2" width="63.4" height="63.4" fill="#8298f2"/><rect x="317" y="190.2" width="63.4" height="63.4" fill="#ffffff"/><rect x="317" y="190.2" width="31.7" height="31.7" fill="#9eddff"/><path d="M 317 221.89999999999998 A 31.7 31.7 0 0 0 348.7 190.2 L 317 190.2" fill="#8cd7ff"/><rect x="348.7" y="190.2" width="31.7" height="31.7" fill="#6f89f0"/><path d="M 348.7 190.2 A 31.7 31.7 0 0 0 380.4 221.89999999999998 L 380.4 190.2" fill="#c9ecff"/><rect x="317" y="221.9" width="31.7" height="31.7" fill="#44beff"/><path d="M 317 221.9 A 31.7 31.7 0 0 1 348.7 253.6 L 317 253.6" fill="#8fa3f3"/><rect x="348.7" y="221.9" width="31.7" height="31.7" fill="#6acbff"/><path d="M 348.7 253.6 A 31.7 31.7 0 0 1  380.4 221.9 L 380.4 253.6" fill="#8a9ff3"/><rect x="380.4" y="190.2" width="63.4" height="63.4" fill="#ffffff"/><rect x="380.4" y="190.2" width="31.7" height="31.7" fill="#c1e9ff"/><path d="M 380.4 221.89999999999998 A 31.7 31.7 0 0 1 412.09999999999997 190.2 L 412.09999999999997 198.125 A 23.775 23.775 0 0 0 388.325 221.89999999999998" fill="#61c8ff"/><rect x="412.1" y="190.2" width="31.7" height="31.7" fill="#7e95f1"/><path d="M 412.1 190.2 A 31.7 31.7 0 0 1 443.8 221.89999999999998 L 435.875 221.89999999999998 A 23.775 23.775 0 0 0 412.1 198.125" fill="#4fc1ff"/><rect x="380.4" y="221.9" width="31.7" height="31.7" fill="#52c2ff"/><path d="M 380.4 221.9 A 31.7 31.7 0 0 0 412.09999999999997 253.6 L 412.09999999999997 245.675 A 23.775 23.775 0 0 1 388.325 221.9" fill="#f7f8fe"/><rect x="412.1" y="221.9" width="31.7" height="31.7" fill="#89d6ff"/><path d="M 412.1 253.6 A 31.7 31.7 0 0 0 443.8 221.9 L 435.875 221.9 A 23.775 23.775 0 0 1 412.1 245.675" fill="#cdd6fa"/><rect x="443.8" y="190.2" width="63.4" height="63.4" fill="#d9f2ff"/><path d="M 443.8 253.6 A 63.4 63.4 0 0 1  507.2 190.2 L 443.8 253.6 A 63.4 63.4 0 0 0 507.2 190.2" fill="#6a84ef"/><rect x="507.2" y="190.2" width="63.4" height="63.4" fill="#aebdf6"/><rect x="507.2" y="190.2" width="63.4" height="63.4" fill="#9dddff"/><rect x="570.6" y="190.2" width="63.4" height="63.4" fill="#ffffff"/><rect x="570.6" y="190.2" width="31.7" height="31.7" fill="#7dd2ff"/><polygon points="602.3000000000001,190.2 602.3000000000001,221.89999999999998 570.6,221.89999999999998" fill="#869bf2"/><rect x="602.3" y="190.2" width="31.7" height="31.7" fill="#edf9ff"/><polygon points="602.3,190.2 634,221.89999999999998 602.3,221.89999999999998" fill="#93a6f4"/><rect x="570.6" y="221.9" width="31.7" height="31.7" fill="#a7b7f6"/><polygon points="570.6,221.9 602.3000000000001,221.9 602.3000000000001,253.6" fill="#cad4f9"/><rect x="602.3" y="221.9" width="31.7" height="31.7" fill="#93a6f4"/><polygon points="602.3,221.9 634,221.9 602.3,253.6" fill="#feffff"/><rect x="634" y="190.2" width="63.4" height="63.4" fill="#ffffff"/><rect x="634" y="190.2" width="31.7" height="31.7" fill="#98dbff"/><path d="M 634 190.2 A 31.7 31.7 0 0 0 665.7 221.89999999999998 L 665.7 190.2" fill="#4f6fec"/><rect x="665.7" y="190.2" width="31.7" height="31.7" fill="#d8dffb"/><path d="M 665.7 221.89999999999998 A 31.7 31.7 0 0 0 697.4000000000001 190.2 L 665.7 190.2" fill="#8a9ef3"/><rect x="634" y="221.9" width="31.7" height="31.7" fill="#bbe7ff"/><path d="M 634 253.6 A 31.7 31.7 0 0 1  665.7 221.9 L 665.7 253.6" fill="#fafbfe"/><rect x="665.7" y="221.9" width="31.7" height="31.7" fill="#aab9f6"/><path d="M 665.7 221.9 A 31.7 31.7 0 0 1 697.4000000000001 253.6 L 665.7 253.6" fill="#617dee"/><rect x="697.4" y="190.2" width="63.4" height="63.4" fill="#dbf2ff"/><path d="M 697.4 190.2 A 63.4 63.4 0 0 1  760.8 253.6 L 697.4 190.2 A 63.4 63.4 0 0 0 760.8 253.6" fill="#6eccff"/><rect x="760.8" y="190.2" width="63.4" height="63.4" fill="#bbc7f8"/><polygon points="760.8,190.2 824.1999999999999,190.2 824.1999999999999,253.6" fill="#b9c6f8"/><rect x="824.1999999999999" y="190.2" width="63.4" height="63.4" fill="#ffffff"/><rect x="824.2" y="190.2" width="31.7" height="31.7" fill="#69cbff"/><polygon points="855.9000000000001,190.2 855.9000000000001,221.89999999999998 824.2,221.89999999999998" fill="#a9e1ff"/><rect x="855.9" y="190.2" width="31.7" height="31.7" fill="#66caff"/><polygon points="855.9,190.2 887.6,221.89999999999998 855.9,221.89999999999998" fill="#9eb0f5"/><rect x="824.2" y="221.9" width="31.7" height="31.7" fill="#b1bff7"/><polygon points="824.2,221.9 855.9000000000001,221.9 855.9000000000001,253.6" fill="#e7ebfc"/><rect x="855.9" y="221.9" width="31.7" height="31.7" fill="#4d6cec"/><polygon points="855.9,221.9 887.6,221.9 855.9,253.6" fill="#fdfdff"/><rect x="887.6" y="190.2" width="63.4" height="63.4" fill="#ffffff"/><rect x="887.6" y="190.2" width="31.7" height="31.7" fill="#98dbff"/><polygon points="919.3000000000001,190.2 919.3000000000001,221.89999999999998 887.6,221.89999999999998" fill="#5dc6ff"/><rect x="919.3" y="190.2" width="31.7" height="31.7" fill="#5f7bee"/><polygon points="919.3,190.2 951,190.2 919.3,221.89999999999998" fill="#b7c3f7"/><rect x="887.6" y="221.9" width="31.7" height="31.7" fill="#f1faff"/><polygon points="887.6,221.9 919.3000000000001,221.9 919.3000000000001,253.6" fill="#627eee"/><rect x="919.3" y="221.9" width="31.7" height="31.7" fill="#fcfeff"/><polygon points="919.3,221.9 951,253.6 919.3,253.6" fill="#90a4f3"/><rect x="951" y="190.2" width="63.4" height="63.4" fill="#82d3ff"/><path d="M 951 253.6 A 63.4 63.4 0 0 1  1014.4 190.2 L 1014.4 253.6" fill="#ecf0fd"/><rect x="0" y="253.6" width="63.4" height="63.4" fill="#ffffff"/><rect x="0" y="253.6" width="31.7" height="31.7" fill="#4f6eec"/><path d="M 0 285.3 A 31.7 31.7 0 0 1 31.7 253.6 L 31.7 261.525 A 23.775 23.775 0 0 0 7.925 285.3" fill="#ddf3ff"/><rect x="31.7" y="253.6" width="31.7" height="31.7" fill="#45beff"/><path d="M 31.7 253.6 A 31.7 31.7 0 0 1 63.4 285.3 L 55.474999999999994 285.3 A 23.775 23.775 0 0 0 31.7 261.525" fill="#a1b2f5"/><rect x="0" y="285.3" width="31.7" height="31.7" fill="#9caef5"/><path d="M 0 285.3 A 31.7 31.7 0 0 0 31.7 317 L 31.7 309.075 A 23.775 23.775 0 0 1 7.925 285.3" fill="#b4e5ff"/><rect x="31.7" y="285.3" width="31.7" height="31.7" fill="#506fed"/><path d="M 31.7 317 A 31.7 31.7 0 0 0 63.4 285.3 L 55.474999999999994 285.3 A 23.775 23.775 0 0 1 31.7 309.075" fill="#899ef3"/><rect x="63.4" y="253.6" width="63.4" height="63.4" fill="#ffffff"/><rect x="63.4" y="253.6" width="31.7" height="31.7" fill="#4ac0ff"/><polygon points="95.1,253.6 95.1,285.3 63.4,285.3" fill="#5a77ee"/><rect x="95.1" y="253.6" width="31.7" height="31.7" fill="#a2dfff"/><polygon points="95.1,253.6 126.8,285.3 95.1,285.3" fill="#abe2ff"/><rect x="63.4" y="285.3" width="31.7" height="31.7" fill="#83d4ff"/><polygon points="63.4,285.3 95.1,285.3 95.1,317" fill="#d6ddfb"/><rect x="95.1" y="285.3" width="31.7" height="31.7" fill="#f3f5fe"/><polygon points="95.1,285.3 126.8,285.3 95.1,317" fill="#edf9ff"/><rect x="126.8" y="253.6" width="63.4" height="63.4" fill="#ffffff"/><rect x="126.8" y="253.6" width="31.7" height="31.7" fill="#aebcf6"/><path d="M 126.8 253.6 A 31.7 31.7 0 0 1 158.5 285.3 L 126.8 285.3" fill="#5473ed"/><rect x="158.5" y="253.6" width="31.7" height="31.7" fill="#4cc0ff"/><path d="M 158.5 285.3 A 31.7 31.7 0 0 1  190.2 253.6 L 190.2 285.3" fill="#abbaf6"/><rect x="126.8" y="285.3" width="31.7" height="31.7" fill="#7b93f1"/><path d="M 126.8 317 A 31.7 31.7 0 0 0 158.5 285.3 L 126.8 285.3" fill="#c9ecff"/><rect x="158.5" y="285.3" width="31.7" height="31.7" fill="#4d6dec"/><path d="M 158.5 285.3 A 31.7 31.7 0 0 0 190.2 317 L 190.2 285.3" fill="#e0e5fc"/><rect x="190.2" y="253.6" width="63.4" height="63.4" fill="#87d5ff"/><polygon points="190.2,253.6 253.6,317 190.2,317" fill="#55c4ff"/><rect x="253.6" y="253.6" width="63.4" height="63.4" fill="#607dee"/><polygon points="253.6,253.6 317,253.6 317,317" fill="#9caef5"/><rect x="317" y="253.6" width="63.4" height="63.4" fill="#b5c3f7"/><polygon points="380.4,253.6 380.4,317 317,317" fill="#daf2ff"/><rect x="380.4" y="253.6" width="63.4" height="63.4" fill="#e9edfd"/><rect x="380.4" y="253.6" width="63.4" height="63.4" fill="#6e88f0"/><rect x="443.8" y="253.6" width="63.4" height="63.4" fill="#ffffff"/><rect x="443.8" y="253.6" width="31.7" height="31.7" fill="#d9f2ff"/><polygon points="475.5,253.6 475.5,285.3 443.8,285.3" fill="#4e6dec"/><rect x="475.5" y="253.6" width="31.7" height="31.7" fill="#daf2ff"/><polygon points="475.5,253.6 507.2,253.6 475.5,285.3" fill="#f8fcff"/><rect x="443.8" y="285.3" width="31.7" height="31.7" fill="#fefeff"/><polygon points="443.8,285.3 475.5,285.3 475.5,317" fill="#f9fafe"/><rect x="475.5" y="285.3" width="31.7" height="31.7" fill="#aee3ff"/><polygon points="475.5,285.3 507.2,317 475.5,317" fill="#abe2ff"/><rect x="507.2" y="253.6" width="63.4" height="63.4" fill="#ffffff"/><rect x="507.2" y="253.6" width="31.7" height="31.7" fill="#42bdff"/><path d="M 507.2 253.6 A 31.7 31.7 0 0 0 538.9 285.3 L 538.9 253.6" fill="#e4f5ff"/><rect x="538.9" y="253.6" width="31.7" height="31.7" fill="#d6f1ff"/><path d="M 538.9 285.3 A 31.7 31.7 0 0 0 570.6 253.6 L 538.9 253.6" fill="#a2dfff"/><rect x="507.2" y="285.3" width="31.7" height="31.7" fill="#9adcff"/><path d="M 507.2 317 A 31.7 31.7 0 0 1  538.9 285.3 L 538.9 317" fill="#768ef1"/><rect x="538.9" y="285.3" width="31.7" height="31.7" fill="#c8d2f9"/><path d="M 538.9 285.3 A 31.7 31.7 0 0 1 570.6 317 L 538.9 317" fill="#607cee"/><rect x="570.6" y="253.6" width="63.4" height="63.4" fill="#ffffff"/><rect x="570.6" y="253.6" width="31.7" height="31.7" fill="#abbaf6"/><polygon points="602.3000000000001,253.6 602.3000000000001,285.3 570.6,285.3" fill="#5b79ee"/><rect x="602.3" y="253.6" width="31.7" height="31.7" fill="#d4dcfa"/><polygon points="602.3,253.6 634,285.3 602.3,285.3" fill="#f9fdff"/><rect x="570.6" y="285.3" width="31.7" height="31.7" fill="#8cd7ff"/><polygon points="570.6,285.3 602.3000000000001,285.3 602.3000000000001,317" fill="#5ac5ff"/><rect x="602.3" y="285.3" width="31.7" height="31.7" fill="#6eccff"/><polygon points="602.3,285.3 634,285.3 602.3,317" fill="#75cfff"/><rect x="634" y="253.6" width="63.4" height="63.4" fill="#ffffff"/><rect x="634" y="253.6" width="31.7" height="31.7" fill="#dfe5fc"/><polygon points="665.7,253.6 665.7,285.3 634,285.3" fill="#627eee"/><rect x="665.7" y="253.6" width="31.7" height="31.7" fill="#71cdff"/><polygon points="665.7,253.6 697.4000000000001,285.3 665.7,285.3" fill="#9eaff5"/><rect x="634" y="285.3" width="31.7" height="31.7" fill="#cad4f9"/><polygon points="634,285.3 665.7,285.3 634,317" fill="#a2deff"/><rect x="665.7" y="285.3" width="31.7" height="31.7" fill="#80d3ff"/><polygon points="665.7,285.3 697.4000000000001,285.3 697.4000000000001,317" fill="#cdeeff"/><rect x="697.4" y="253.6" width="63.4" height="63.4" fill="#ffffff"/><rect x="697.4" y="253.6" width="31.7" height="31.7" fill="#f2f5fe"/><polygon points="729.1,253.6 729.1,285.3 697.4,285.3" fill="#e4f6ff"/><rect x="729.1" y="253.6" width="31.7" height="31.7" fill="#b3e4ff"/><polygon points="729.1,253.6 760.8000000000001,253.6 729.1,285.3" fill="#94a7f4"/><rect x="697.4" y="285.3" width="31.7" height="31.7" fill="#4ac0ff"/><polygon points="697.4,285.3 729.1,285.3 729.1,317" fill="#6681ef"/><rect x="729.1" y="285.3" width="31.7" height="31.7" fill="#d2dafa"/><polygon points="729.1,285.3 760.8000000000001,317 729.1,317" fill="#e7ecfc"/><rect x="760.8" y="253.6" width="63.4" height="63.4" fill="#ffffff"/><rect x="760.8" y="253.6" width="31.7" height="31.7" fill="#849af2"/><path d="M 760.8 253.6 A 31.7 31.7 0 0 1 792.5 285.3 L 760.8 285.3" fill="#a6b6f6"/><rect x="792.5" y="253.6" width="31.7" height="31.7" fill="#cbd4f9"/><path d="M 792.5 285.3 A 31.7 31.7 0 0 1  824.2 253.6 L 824.2 285.3" fill="#8ca1f3"/><rect x="760.8" y="285.3" width="31.7" height="31.7" fill="#a2b3f5"/><path d="M 760.8 317 A 31.7 31.7 0 0 0 792.5 285.3 L 760.8 285.3" fill="#738cf0"/><rect x="792.5" y="285.3" width="31.7" height="31.7" fill="#90d8ff"/><path d="M 792.5 285.3 A 31.7 31.7 0 0 0 824.2 317 L 824.2 285.3" fill="#a3b3f5"/><rect x="824.1999999999999" y="253.6" width="63.4" height="63.4" fill="#ffffff"/><rect x="824.2" y="253.6" width="31.7" height="31.7" fill="#778ff1"/><circle cx="840.0500000000001" cy="269.45" r="15.85" fill="#778ff1"/><rect x="855.9" y="253.6" width="31.7" height="31.7" fill="#d5ddfb"/><rect x="855.9" y="253.6" width="31.7" height="31.7" fill="#e2f5ff"/><rect x="824.2" y="285.3" width="31.7" height="31.7" fill="#dbe1fb"/><circle cx="840.0500000000001" cy="301.15000000000003" r="15.85" fill="#94a7f4"/><rect x="855.9" y="285.3" width="31.7" height="31.7" fill="#8bd6ff"/><rect x="855.9" y="285.3" width="31.7" height="31.7" fill="#bbe7ff"/><rect x="887.6" y="253.6" width="63.4" height="63.4" fill="#ffffff"/><rect x="887.6" y="253.6" width="31.7" height="31.7" fill="#52c2ff"/><circle cx="903.45" cy="269.45" r="15.85" fill="#50c2ff"/><rect x="919.3" y="253.6" width="31.7" height="31.7" fill="#506fed"/><rect x="919.3" y="253.6" width="31.7" height="31.7" fill="#c2cdf9"/><rect x="887.6" y="285.3" width="31.7" height="31.7" fill="#9adcff"/><circle cx="903.45" cy="301.15000000000003" r="15.85" fill="#dbe2fb"/><rect x="919.3" y="285.3" width="31.7" height="31.7" fill="#4e6eec"/><rect x="919.3" y="285.3" width="31.7" height="31.7" fill="#a7e0ff"/><rect x="951" y="253.6" width="63.4" height="63.4" fill="#cbd4fa"/><polygon points="1014.4,253.6 1014.4,317 951,317" fill="#ace2ff"/><rect x="0" y="317" width="63.4" height="63.4" fill="#ffffff"/><rect x="0" y="317" width="31.7" height="31.7" fill="#94a7f4"/><circle cx="15.85" cy="332.85" r="15.85" fill="#e8f7ff"/><rect x="31.7" y="317" width="31.7" height="31.7" fill="#859bf2"/><rect x="31.7" y="317" width="31.7" height="31.7" fill="#748df0"/><rect x="0" y="348.7" width="31.7" height="31.7" fill="#4fc2ff"/><circle cx="15.85" cy="364.55" r="15.85" fill="#5674ed"/><rect x="31.7" y="348.7" width="31.7" height="31.7" fill="#9aacf4"/><rect x="31.7" y="348.7" width="31.7" height="31.7" fill="#eff9ff"/><rect x="63.4" y="317" width="63.4" height="63.4" fill="#98aaf4"/><polygon points="63.4,317 126.8,380.4 63.4,380.4" fill="#7fd2ff"/><rect x="126.8" y="317" width="63.4" height="63.4" fill="#ffffff"/><rect x="126.8" y="317" width="31.7" height="31.7" fill="#bbe7ff"/><path d="M 126.8 317 A 31.7 31.7 0 0 1 158.5 348.7 L 126.8 348.7" fill="#c0e9ff"/><rect x="158.5" y="317" width="31.7" height="31.7" fill="#f7fcff"/><path d="M 158.5 348.7 A 31.7 31.7 0 0 1  190.2 317 L 190.2 348.7" fill="#e2e7fc"/><rect x="126.8" y="348.7" width="31.7" height="31.7" fill="#ace2ff"/><path d="M 126.8 380.4 A 31.7 31.7 0 0 0 158.5 348.7 L 126.8 348.7" fill="#d4f0ff"/><rect x="158.5" y="348.7" width="31.7" height="31.7" fill="#bfe9ff"/><path d="M 158.5 348.7 A 31.7 31.7 0 0 0 190.2 380.4 L 190.2 348.7" fill="#f4f6fe"/><rect x="190.2" y="317" width="63.4" height="63.4" fill="#ffffff"/><rect x="190.2" y="317" width="31.7" height="31.7" fill="#75cfff"/><path d="M 190.2 348.7 A 31.7 31.7 0 0 1 221.89999999999998 317 L 221.89999999999998 324.925 A 23.775 23.775 0 0 0 198.125 348.7" fill="#5fc7ff"/><rect x="221.9" y="317" width="31.7" height="31.7" fill="#97dbff"/><path d="M 221.9 317 A 31.7 31.7 0 0 1 253.6 348.7 L 245.675 348.7 A 23.775 23.775 0 0 0 221.9 324.925" fill="#9aacf4"/><rect x="190.2" y="348.7" width="31.7" height="31.7" fill="#aae1ff"/><path d="M 190.2 348.7 A 31.7 31.7 0 0 0 221.89999999999998 380.4 L 221.89999999999998 372.47499999999997 A 23.775 23.775 0 0 1 198.125 348.7" fill="#8298f2"/><rect x="221.9" y="348.7" width="31.7" height="31.7" fill="#95a8f4"/><path d="M 221.9 380.4 A 31.7 31.7 0 0 0 253.6 348.7 L 245.675 348.7 A 23.775 23.775 0 0 1 221.9 372.47499999999997" fill="#45beff"/><rect x="253.6" y="317" width="63.4" height="63.4" fill="#d9f2ff"/><polygon points="253.6,317 317,380.4 253.6,380.4" fill="#d7defb"/><rect x="317" y="317" width="63.4" height="63.4" fill="#e7ebfc"/><path d="M 317 317 A 63.4 63.4 0 0 1  380.4 380.4 L 317 317 A 63.4 63.4 0 0 0 380.4 380.4" fill="#4e6eec"/><rect x="380.4" y="317" width="63.4" height="63.4" fill="#81d3ff"/><polygon points="380.4,317 443.79999999999995,317 380.4,380.4" fill="#47bfff"/><rect x="443.8" y="317" width="63.4" height="63.4" fill="#ffffff"/><rect x="443.8" y="317" width="31.7" height="31.7" fill="#ced6fa"/><path d="M 443.8 348.7 A 31.7 31.7 0 0 1  475.5 317 L 475.5 348.7" fill="#60c8ff"/><rect x="475.5" y="317" width="31.7" height="31.7" fill="#647fef"/><path d="M 475.5 317 A 31.7 31.7 0 0 1 507.2 348.7 L 475.5 348.7" fill="#b0e3ff"/><rect x="443.8" y="348.7" width="31.7" height="31.7" fill="#fbfcff"/><path d="M 443.8 348.7 A 31.7 31.7 0 0 0 475.5 380.4 L 475.5 348.7" fill="#d2efff"/><rect x="475.5" y="348.7" width="31.7" height="31.7" fill="#a1b2f5"/><path d="M 475.5 380.4 A 31.7 31.7 0 0 0 507.2 348.7 L 475.5 348.7" fill="#60c7ff"/><rect x="507.2" y="317" width="63.4" height="63.4" fill="#ffffff"/><rect x="507.2" y="317" width="31.7" height="31.7" fill="#4d6dec"/><circle cx="523.05" cy="332.85" r="15.85" fill="#c4cff9"/><rect x="538.9" y="317" width="31.7" height="31.7" fill="#9daff5"/><rect x="538.9" y="317" width="31.7" height="31.7" fill="#7ed2ff"/><rect x="507.2" y="348.7" width="31.7" height="31.7" fill="#56c4ff"/><circle cx="523.05" cy="364.55" r="15.85" fill="#ace2ff"/><rect x="538.9" y="348.7" width="31.7" height="31.7" fill="#4f6eec"/><rect x="538.9" y="348.7" width="31.7" height="31.7" fill="#bfe9ff"/><rect x="570.6" y="317" width="63.4" height="63.4" fill="#ffffff"/><rect x="570.6" y="317" width="31.7" height="31.7" fill="#e0e6fc"/><circle cx="586.45" cy="332.85" r="15.85" fill="#ccd5fa"/><rect x="602.3" y="317" width="31.7" height="31.7" fill="#859af2"/><rect x="602.3" y="317" width="31.7" height="31.7" fill="#c8d2f9"/><rect x="570.6" y="348.7" width="31.7" height="31.7" fill="#45beff"/><circle cx="586.45" cy="364.55" r="15.85" fill="#f2f4fe"/><rect x="602.3" y="348.7" width="31.7" height="31.7" fill="#f5f6fe"/><rect x="602.3" y="348.7" width="31.7" height="31.7" fill="#74cfff"/><rect x="634" y="317" width="63.4" height="63.4" fill="#ffffff"/><rect x="634" y="317" width="31.7" height="31.7" fill="#94a7f4"/><path d="M 634 317 A 31.7 31.7 0 0 1 665.7 348.7 L 634 348.7" fill="#7fd2ff"/><rect x="665.7" y="317" width="31.7" height="31.7" fill="#78d0ff"/><path d="M 665.7 348.7 A 31.7 31.7 0 0 1  697.4000000000001 317 L 697.4000000000001 348.7" fill="#728bf0"/><rect x="634" y="348.7" width="31.7" height="31.7" fill="#b9e7ff"/><path d="M 634 380.4 A 31.7 31.7 0 0 0 665.7 348.7 L 634 348.7" fill="#e2f5ff"/><rect x="665.7" y="348.7" width="31.7" height="31.7" fill="#5775ed"/><path d="M 665.7 348.7 A 31.7 31.7 0 0 0 697.4000000000001 380.4 L 697.4000000000001 348.7" fill="#6cccff"/><rect x="697.4" y="317" width="63.4" height="63.4" fill="#ffffff"/><rect x="697.4" y="317" width="31.7" height="31.7" fill="#f6f8fe"/><path d="M 697.4 317 A 31.7 31.7 0 0 1 729.1 348.7 L 697.4 348.7" fill="#6fcdff"/><rect x="729.1" y="317" width="31.7" height="31.7" fill="#81d3ff"/><path d="M 729.1 348.7 A 31.7 31.7 0 0 1  760.8000000000001 317 L 760.8000000000001 348.7" fill="#44beff"/><rect x="697.4" y="348.7" width="31.7" height="31.7" fill="#71cdff"/><path d="M 697.4 380.4 A 31.7 31.7 0 0 0 729.1 348.7 L 697.4 348.7" fill="#e3f5ff"/><rect x="729.1" y="348.7" width="31.7" height="31.7" fill="#b6e5ff"/><path d="M 729.1 348.7 A 31.7 31.7 0 0 0 760.8000000000001 380.4 L 760.8000000000001 348.7" fill="#748df0"/><rect x="760.8" y="317" width="63.4" height="63.4" fill="#ffffff"/><rect x="760.8" y="317" width="31.7" height="31.7" fill="#86d5ff"/><path d="M 760.8 348.7 A 31.7 31.7 0 0 1 792.5 317 L 792.5 324.925 A 23.775 23.775 0 0 0 768.7249999999999 348.7" fill="#d0eeff"/><rect x="792.5" y="317" width="31.7" height="31.7" fill="#96a9f4"/><path d="M 792.5 317 A 31.7 31.7 0 0 1 824.2 348.7 L 816.275 348.7 A 23.775 23.775 0 0 0 792.5 324.925" fill="#66caff"/><rect x="760.8" y="348.7" width="31.7" height="31.7" fill="#879cf2"/><path d="M 760.8 348.7 A 31.7 31.7 0 0 0 792.5 380.4 L 792.5 372.47499999999997 A 23.775 23.775 0 0 1 768.7249999999999 348.7" fill="#eff2fd"/><rect x="792.5" y="348.7" width="31.7" height="31.7" fill="#7a92f1"/><path d="M 792.5 380.4 A 31.7 31.7 0 0 0 824.2 348.7 L 816.275 348.7 A 23.775 23.775 0 0 1 792.5 372.47499999999997" fill="#58c5ff"/><rect x="824.1999999999999" y="317" width="63.4" height="63.4" fill="#ffffff"/><rect x="824.2" y="317" width="31.7" height="31.7" fill="#bcc8f8"/><polygon points="855.9000000000001,317 855.9000000000001,348.7 824.2,348.7" fill="#6e88f0"/><rect x="855.9" y="317" width="31.7" height="31.7" fill="#c5cff9"/><polygon points="855.9,317 887.6,348.7 855.9,348.7" fill="#9eb0f5"/><rect x="824.2" y="348.7" width="31.7" height="31.7" fill="#e4e9fc"/><polygon points="824.2,348.7 855.9000000000001,348.7 855.9000000000001,380.4" fill="#8ba0f3"/><rect x="855.9" y="348.7" width="31.7" height="31.7" fill="#ebeefd"/><polygon points="855.9,348.7 887.6,348.7 855.9,380.4" fill="#6cccff"/><rect x="887.6" y="317" width="63.4" height="63.4" fill="#ffffff"/><rect x="887.6" y="317" width="31.7" height="31.7" fill="#b8e6ff"/><path d="M 887.6 317 A 31.7 31.7 0 0 0 919.3000000000001 348.7 L 919.3000000000001 317" fill="#bde8ff"/><rect x="919.3" y="317" width="31.7" height="31.7" fill="#f8f9fe"/><path d="M 919.3 348.7 A 31.7 31.7 0 0 0 951 317 L 919.3 317" fill="#79d0ff"/><rect x="887.6" y="348.7" width="31.7" height="31.7" fill="#61c8ff"/><path d="M 887.6 380.4 A 31.7 31.7 0 0 1  919.3000000000001 348.7 L 919.3000000000001 380.4" fill="#6e88f0"/><rect x="919.3" y="348.7" width="31.7" height="31.7" fill="#7ed2ff"/><path d="M 919.3 348.7 A 31.7 31.7 0 0 1 951 380.4 L 919.3 380.4" fill="#d7defb"/><rect x="951" y="317" width="63.4" height="63.4" fill="#ffffff"/><rect x="951" y="317" width="31.7" height="31.7" fill="#9eddff"/><polygon points="982.7,317 982.7,348.7 951,348.7" fill="#a9b8f6"/><rect x="982.7" y="317" width="31.7" height="31.7" fill="#b0e3ff"/><polygon points="982.7,317 1014.4000000000001,348.7 982.7,348.7" fill="#728bf0"/><rect x="951" y="348.7" width="31.7" height="31.7" fill="#f1faff"/><polygon points="951,348.7 982.7,348.7 982.7,380.4" fill="#84d4ff"/><rect x="982.7" y="348.7" width="31.7" height="31.7" fill="#8dd7ff"/><polygon points="982.7,348.7 1014.4000000000001,348.7 982.7,380.4" fill="#ffffff"/><rect x="0" y="380.4" width="63.4" height="63.4" fill="#7e95f1"/><polygon points="0,380.4 63.4,380.4 63.4,443.79999999999995" fill="#62c8ff"/><rect x="63.4" y="380.4" width="63.4" height="63.4" fill="#ffffff"/><rect x="63.4" y="380.4" width="31.7" height="31.7" fill="#c7d1f9"/><circle cx="79.25" cy="396.25" r="15.85" fill="#728bf0"/><rect x="95.1" y="380.4" width="31.7" height="31.7" fill="#68caff"/><rect x="95.1" y="380.4" width="31.7" height="31.7" fill="#fcfeff"/><rect x="63.4" y="412.1" width="31.7" height="31.7" fill="#91d9ff"/><circle cx="79.25" cy="427.95000000000005" r="15.85" fill="#8197f2"/><rect x="95.1" y="412.1" width="31.7" height="31.7" fill="#7f96f1"/><rect x="95.1" y="412.1" width="31.7" height="31.7" fill="#8097f2"/><rect x="126.8" y="380.4" width="63.4" height="63.4" fill="#5bc6ff"/><polygon points="126.8,380.4 190.2,380.4 190.2,443.79999999999995" fill="#9dddff"/><rect x="190.2" y="380.4" width="63.4" height="63.4" fill="#ffffff"/><rect x="190.2" y="380.4" width="31.7" height="31.7" fill="#a6e0ff"/><path d="M 190.2 380.4 A 31.7 31.7 0 0 0 221.89999999999998 412.09999999999997 L 221.89999999999998 380.4" fill="#5f7bee"/><rect x="221.9" y="380.4" width="31.7" height="31.7" fill="#98dbff"/><path d="M 221.9 412.09999999999997 A 31.7 31.7 0 0 0 253.6 380.4 L 221.9 380.4" fill="#dae1fb"/><rect x="190.2" y="412.1" width="31.7" height="31.7" fill="#a7b6f6"/><path d="M 190.2 443.8 A 31.7 31.7 0 0 1  221.89999999999998 412.1 L 221.89999999999998 443.8" fill="#61c8ff"/><rect x="221.9" y="412.1" width="31.7" height="31.7" fill="#7c93f1"/><path d="M 221.9 412.1 A 31.7 31.7 0 0 1 253.6 443.8 L 221.9 443.8" fill="#99abf4"/><rect x="253.6" y="380.4" width="63.4" height="63.4" fill="#ffffff"/><rect x="253.6" y="380.4" width="31.7" height="31.7" fill="#79d0ff"/><polygon points="285.3,380.4 285.3,412.09999999999997 253.6,412.09999999999997" fill="#9daef5"/><rect x="285.3" y="380.4" width="31.7" height="31.7" fill="#d2dafa"/><polygon points="285.3,380.4 317,412.09999999999997 285.3,412.09999999999997" fill="#7d94f1"/><rect x="253.6" y="412.1" width="31.7" height="31.7" fill="#92d9ff"/><polygon points="253.6,412.1 285.3,412.1 285.3,443.8" fill="#fdfeff"/><rect x="285.3" y="412.1" width="31.7" height="31.7" fill="#f9fafe"/><polygon points="285.3,412.1 317,412.1 285.3,443.8" fill="#bce8ff"/><rect x="317" y="380.4" width="63.4" height="63.4" fill="#ffffff"/><rect x="317" y="380.4" width="31.7" height="31.7" fill="#f2f4fe"/><polygon points="348.7,380.4 348.7,412.09999999999997 317,412.09999999999997" fill="#98dbff"/><rect x="348.7" y="380.4" width="31.7" height="31.7" fill="#89d6ff"/><polygon points="348.7,380.4 380.4,412.09999999999997 348.7,412.09999999999997" fill="#f3fbff"/><rect x="317" y="412.1" width="31.7" height="31.7" fill="#eaeefd"/><polygon points="317,412.1 348.7,412.1 317,443.8" fill="#fefeff"/><rect x="348.7" y="412.1" width="31.7" height="31.7" fill="#9daff5"/><polygon points="348.7,412.1 380.4,412.1 380.4,443.8" fill="#7890f1"/><rect x="380.4" y="380.4" width="63.4" height="63.4" fill="#ffffff"/><rect x="380.4" y="380.4" width="31.7" height="31.7" fill="#67caff"/><polygon points="412.09999999999997,380.4 412.09999999999997,412.09999999999997 380.4,412.09999999999997" fill="#6bcbff"/><rect x="412.1" y="380.4" width="31.7" height="31.7" fill="#87d5ff"/><polygon points="412.1,380.4 443.8,412.09999999999997 412.1,412.09999999999997" fill="#dae1fb"/><rect x="380.4" y="412.1" width="31.7" height="31.7" fill="#9cadf5"/><polygon points="380.4,412.1 412.09999999999997,412.1 380.4,443.8" fill="#d6f1ff"/><rect x="412.1" y="412.1" width="31.7" height="31.7" fill="#fafdff"/><polygon points="412.1,412.1 443.8,412.1 443.8,443.8" fill="#9dddff"/><rect x="443.8" y="380.4" width="63.4" height="63.4" fill="#ffffff"/><rect x="443.8" y="380.4" width="31.7" height="31.7" fill="#f8f9fe"/><circle cx="459.65000000000003" cy="396.25" r="15.85" fill="#47bfff"/><rect x="475.5" y="380.4" width="31.7" height="31.7" fill="#84d4ff"/><rect x="475.5" y="380.4" width="31.7" height="31.7" fill="#5271ed"/><rect x="443.8" y="412.1" width="31.7" height="31.7" fill="#849af2"/><circle cx="459.65000000000003" cy="427.95000000000005" r="15.85" fill="#ace2ff"/><rect x="475.5" y="412.1" width="31.7" height="31.7" fill="#f1faff"/><rect x="475.5" y="412.1" width="31.7" height="31.7" fill="#7a92f1"/><rect x="507.2" y="380.4" width="63.4" height="63.4" fill="#ffffff"/><rect x="507.2" y="380.4" width="31.7" height="31.7" fill="#c5ebff"/><polygon points="538.9,380.4 538.9,412.09999999999997 507.2,412.09999999999997" fill="#d5f0ff"/><rect x="538.9" y="380.4" width="31.7" height="31.7" fill="#758ef0"/><polygon points="538.9,380.4 570.6,412.09999999999997 538.9,412.09999999999997" fill="#89d6ff"/><rect x="507.2" y="412.1" width="31.7" height="31.7" fill="#63c9ff"/><polygon points="507.2,412.1 538.9,412.1 507.2,443.8" fill="#9caef5"/><rect x="538.9" y="412.1" width="31.7" height="31.7" fill="#b9e7ff"/><polygon points="538.9,412.1 570.6,412.1 570.6,443.8" fill="#d6f1ff"/><rect x="570.6" y="380.4" width="63.4" height="63.4" fill="#ffffff"/><rect x="570.6" y="380.4" width="31.7" height="31.7" fill="#5271ed"/><path d="M 570.6 380.4 A 31.7 31.7 0 0 0 602.3000000000001 412.09999999999997 L 602.3000000000001 380.4" fill="#ebf8ff"/><rect x="602.3" y="380.4" width="31.7" height="31.7" fill="#d5ddfb"/><path d="M 602.3 412.09999999999997 A 31.7 31.7 0 0 0 634 380.4 L 602.3 380.4" fill="#889df2"/><rect x="570.6" y="412.1" width="31.7" height="31.7" fill="#74cfff"/><path d="M 570.6 443.8 A 31.7 31.7 0 0 1  602.3000000000001 412.1 L 602.3000000000001 443.8" fill="#dff4ff"/><rect x="602.3" y="412.1" width="31.7" height="31.7" fill="#f7f8fe"/><path d="M 602.3 412.1 A 31.7 31.7 0 0 1 634 443.8 L 602.3 443.8" fill="#bee8ff"/><rect x="634" y="380.4" width="63.4" height="63.4" fill="#feffff"/><rect x="634" y="380.4" width="63.4" height="63.4" fill="#f5f7fe"/><rect x="697.4" y="380.4" width="63.4" height="63.4" fill="#ffffff"/><rect x="697.4" y="380.4" width="31.7" height="31.7" fill="#f5f7fe"/><path d="M 697.4 412.09999999999997 A 31.7 31.7 0 0 1  729.1 380.4 L 729.1 412.09999999999997" fill="#849af2"/><rect x="729.1" y="380.4" width="31.7" height="31.7" fill="#c4eaff"/><path d="M 729.1 380.4 A 31.7 31.7 0 0 1 760.8000000000001 412.09999999999997 L 729.1 412.09999999999997" fill="#e9f7ff"/><rect x="697.4" y="412.1" width="31.7" height="31.7" fill="#d0eeff"/><path d="M 697.4 412.1 A 31.7 31.7 0 0 0 729.1 443.8 L 729.1 412.1" fill="#8fd8ff"/><rect x="729.1" y="412.1" width="31.7" height="31.7" fill="#f3fbff"/><path d="M 729.1 443.8 A 31.7 31.7 0 0 0 760.8000000000001 412.1 L 729.1 412.1" fill="#e8ecfd"/><rect x="760.8" y="380.4" width="63.4" height="63.4" fill="#8ba0f3"/><path d="M 760.8 443.79999999999995 A 63.4 63.4 0 0 1  824.1999999999999 380.4 L 760.8 443.79999999999995 A 63.4 63.4 0 0 0 824.1999999999999 380.4" fill="#4e6dec"/><rect x="824.2" y="380.4" width="63.4" height="63.4" fill="#bfcaf8"/><polygon points="824.2,380.4 887.6,380.4 824.2,443.79999999999995" fill="#6dccff"/><rect x="887.6" y="380.4" width="63.4" height="63.4" fill="#5271ed"/><path d="M 887.6 443.79999999999995 A 63.4 63.4 0 0 1  951 380.4 L 951 443.79999999999995" fill="#5ec7ff"/><rect x="951" y="380.4" width="63.4" height="63.4" fill="#ffffff"/><rect x="951" y="380.4" width="31.7" height="31.7" fill="#6e88f0"/><path d="M 951 412.09999999999997 A 31.7 31.7 0 0 1  982.7 380.4 L 982.7 412.09999999999997" fill="#9caef5"/><rect x="982.7" y="380.4" width="31.7" height="31.7" fill="#a4b4f5"/><path d="M 982.7 380.4 A 31.7 31.7 0 0 1 1014.4000000000001 412.09999999999997 L 982.7 412.09999999999997" fill="#fafdff"/><rect x="951" y="412.1" width="31.7" height="31.7" fill="#a5e0ff"/><path d="M 951 412.1 A 31.7 31.7 0 0 0 982.7 443.8 L 982.7 412.1" fill="#56c4ff"/><rect x="982.7" y="412.1" width="31.7" height="31.7" fill="#9fdeff"/><path d="M 982.7 443.8 A 31.7 31.7 0 0 0 1014.4000000000001 412.1 L 982.7 412.1" fill="#edf0fd"/><rect x="0" y="443.8" width="63.4" height="63.4" fill="#a2b3f5"/><path d="M 0 443.8 A 63.4 63.4 0 0 1 63.4 507.2 L 0 507.2" fill="#e8f7ff"/><rect x="63.4" y="443.8" width="63.4" height="63.4" fill="#f3f5fe"/><polygon points="63.4,443.8 126.8,507.2 63.4,507.2" fill="#a4dfff"/><rect x="126.8" y="443.8" width="63.4" height="63.4" fill="#ffffff"/><rect x="126.8" y="443.8" width="31.7" height="31.7" fill="#5cc6ff"/><circle cx="142.65" cy="459.65000000000003" r="15.85" fill="#e2f5ff"/><rect x="158.5" y="443.8" width="31.7" height="31.7" fill="#becaf8"/><rect x="158.5" y="443.8" width="31.7" height="31.7" fill="#9fb0f5"/><rect x="126.8" y="475.5" width="31.7" height="31.7" fill="#97a9f4"/><circle cx="142.65" cy="491.35" r="15.85" fill="#aab9f6"/><rect x="158.5" y="475.5" width="31.7" height="31.7" fill="#7f96f2"/><rect x="158.5" y="475.5" width="31.7" height="31.7" fill="#d0eeff"/><rect x="190.2" y="443.8" width="63.4" height="63.4" fill="#82d3ff"/><polygon points="190.2,443.8 253.6,443.8 190.2,507.2" fill="#f2f5fe"/><rect x="253.6" y="443.8" width="63.4" height="63.4" fill="#5876ed"/><path d="M 253.6 443.8 A 63.4 63.4 0 0 1  317 507.2 L 253.6 443.8 A 63.4 63.4 0 0 0 317 507.2" fill="#f1f3fe"/><rect x="317" y="443.8" width="63.4" height="63.4" fill="#e8f7ff"/><polygon points="317,443.8 380.4,443.8 380.4,507.2" fill="#eff2fd"/><rect x="380.4" y="443.8" width="63.4" height="63.4" fill="#c8d2f9"/><path d="M 380.4 443.8 A 63.4 63.4 0 0 1 443.79999999999995 507.2 L 380.4 507.2" fill="#8298f2"/><rect x="443.8" y="443.8" width="63.4" height="63.4" fill="#e3e8fc"/><polygon points="443.8,443.8 507.2,443.8 443.8,507.2" fill="#e9f7ff"/><rect x="507.2" y="443.8" width="63.4" height="63.4" fill="#ffffff"/><rect x="507.2" y="443.8" width="31.7" height="31.7" fill="#7e95f1"/><polygon points="538.9,443.8 538.9,475.5 507.2,475.5" fill="#bbe7ff"/><rect x="538.9" y="443.8" width="31.7" height="31.7" fill="#98aaf4"/><polygon points="538.9,443.8 570.6,475.5 538.9,475.5" fill="#6983ef"/><rect x="507.2" y="475.5" width="31.7" height="31.7" fill="#edf9ff"/><polygon points="507.2,475.5 538.9,475.5 507.2,507.2" fill="#fbfeff"/><rect x="538.9" y="475.5" width="31.7" height="31.7" fill="#8ea2f3"/><polygon points="538.9,475.5 570.6,475.5 570.6,507.2" fill="#b2e4ff"/><rect x="570.6" y="443.8" width="63.4" height="63.4" fill="#ffffff"/><rect x="570.6" y="443.8" width="31.7" height="31.7" fill="#b2e4ff"/><path d="M 570.6 443.8 A 31.7 31.7 0 0 1 602.3000000000001 475.5 L 570.6 475.5" fill="#64c9ff"/><rect x="602.3" y="443.8" width="31.7" height="31.7" fill="#c4cef9"/><path d="M 602.3 475.5 A 31.7 31.7 0 0 1  634 443.8 L 634 475.5" fill="#a1b2f5"/><rect x="570.6" y="475.5" width="31.7" height="31.7" fill="#eaeefd"/><path d="M 570.6 507.2 A 31.7 31.7 0 0 0 602.3000000000001 475.5 L 570.6 475.5" fill="#bfe9ff"/><rect x="602.3" y="475.5" width="31.7" height="31.7" fill="#b9c5f8"/><path d="M 602.3 475.5 A 31.7 31.7 0 0 0 634 507.2 L 634 475.5" fill="#eef9ff"/><rect x="634" y="443.8" width="63.4" height="63.4" fill="#5a77ee"/><rect x="634" y="443.8" width="63.4" height="63.4" fill="#899ef3"/><rect x="697.4" y="443.8" width="63.4" height="63.4" fill="#ffffff"/><rect x="697.4" y="443.8" width="31.7" height="31.7" fill="#a4dfff"/><path d="M 697.4 443.8 A 31.7 31.7 0 0 1 729.1 475.5 L 697.4 475.5" fill="#7dd2ff"/><rect x="729.1" y="443.8" width="31.7" height="31.7" fill="#aee3ff"/><path d="M 729.1 475.5 A 31.7 31.7 0 0 1  760.8000000000001 443.8 L 760.8000000000001 475.5" fill="#9fb0f5"/><rect x="697.4" y="475.5" width="31.7" height="31.7" fill="#9dddff"/><path d="M 697.4 507.2 A 31.7 31.7 0 0 0 729.1 475.5 L 697.4 475.5" fill="#8198f2"/><rect x="729.1" y="475.5" width="31.7" height="31.7" fill="#c2cdf9"/><path d="M 729.1 475.5 A 31.7 31.7 0 0 0 760.8000000000001 507.2 L 760.8000000000001 475.5" fill="#d7f1ff"/><rect x="760.8" y="443.8" width="63.4" height="63.4" fill="#ffffff"/><rect x="760.8" y="443.8" width="31.7" height="31.7" fill="#bdc8f8"/><path d="M 760.8 443.8 A 31.7 31.7 0 0 1 792.5 475.5 L 760.8 475.5" fill="#c8ecff"/><rect x="792.5" y="443.8" width="31.7" height="31.7" fill="#f6f8fe"/><path d="M 792.5 475.5 A 31.7 31.7 0 0 1  824.2 443.8 L 824.2 475.5" fill="#abe2ff"/><rect x="760.8" y="475.5" width="31.7" height="31.7" fill="#ced6fa"/><path d="M 760.8 507.2 A 31.7 31.7 0 0 0 792.5 475.5 L 760.8 475.5" fill="#fcfeff"/><rect x="792.5" y="475.5" width="31.7" height="31.7" fill="#8bd7ff"/><path d="M 792.5 475.5 A 31.7 31.7 0 0 0 824.2 507.2 L 824.2 475.5" fill="#aebdf6"/><rect x="824.1999999999999" y="443.8" width="63.4" height="63.4" fill="#ffffff"/><rect x="824.2" y="443.8" width="31.7" height="31.7" fill="#aebdf6"/><path d="M 824.2 475.5 A 31.7 31.7 0 0 1  855.9000000000001 443.8 L 855.9000000000001 475.5" fill="#a2b2f5"/><rect x="855.9" y="443.8" width="31.7" height="31.7" fill="#5875ed"/><path d="M 855.9 443.8 A 31.7 31.7 0 0 1 887.6 475.5 L 855.9 475.5" fill="#bee8ff"/><rect x="824.2" y="475.5" width="31.7" height="31.7" fill="#a5e0ff"/><path d="M 824.2 475.5 A 31.7 31.7 0 0 0 855.9000000000001 507.2 L 855.9000000000001 475.5" fill="#b9c5f8"/><rect x="855.9" y="475.5" width="31.7" height="31.7" fill="#a5b5f5"/><path d="M 855.9 507.2 A 31.7 31.7 0 0 0 887.6 475.5 L 855.9 475.5" fill="#b1e4ff"/><rect x="887.6" y="443.8" width="63.4" height="63.4" fill="#eef1fd"/><path d="M 887.6 443.8 A 63.4 63.4 0 0 1  951 507.2 L 887.6 443.8 A 63.4 63.4 0 0 0 951 507.2" fill="#92d9ff"/><rect x="951" y="443.8" width="63.4" height="63.4" fill="#ffffff"/><rect x="951" y="443.8" width="31.7" height="31.7" fill="#4d6dec"/><path d="M 951 475.5 A 31.7 31.7 0 0 1  982.7 443.8 L 982.7 475.5" fill="#a7b7f6"/><rect x="982.7" y="443.8" width="31.7" height="31.7" fill="#c5ebff"/><path d="M 982.7 443.8 A 31.7 31.7 0 0 1 1014.4000000000001 475.5 L 982.7 475.5" fill="#d2dafa"/><rect x="951" y="475.5" width="31.7" height="31.7" fill="#a2dfff"/><path d="M 951 475.5 A 31.7 31.7 0 0 0 982.7 507.2 L 982.7 475.5" fill="#bbc7f8"/><rect x="982.7" y="475.5" width="31.7" height="31.7" fill="#afe3ff"/><path d="M 982.7 507.2 A 31.7 31.7 0 0 0 1014.4000000000001 475.5 L 982.7 475.5" fill="#a0b1f5"/><rect x="0" y="507.2" width="63.4" height="63.4" fill="#ffffff"/><rect x="0" y="507.2" width="31.7" height="31.7" fill="#9fb0f5"/><polygon points="31.7,507.2 31.7,538.9 0,538.9" fill="#65c9ff"/><rect x="31.7" y="507.2" width="31.7" height="31.7" fill="#bfcbf8"/><polygon points="31.7,507.2 63.4,538.9 31.7,538.9" fill="#7ed2ff"/><rect x="0" y="538.9" width="31.7" height="31.7" fill="#b6c3f7"/><polygon points="0,538.9 31.7,538.9 0,570.6" fill="#c1ccf9"/><rect x="31.7" y="538.9" width="31.7" height="31.7" fill="#748cf0"/><polygon points="31.7,538.9 63.4,538.9 63.4,570.6" fill="#d5f0ff"/><rect x="63.4" y="507.2" width="63.4" height="63.4" fill="#ffffff"/><rect x="63.4" y="507.2" width="31.7" height="31.7" fill="#b4c1f7"/><circle cx="79.25" cy="523.05" r="15.85" fill="#c3eaff"/><rect x="95.1" y="507.2" width="31.7" height="31.7" fill="#76cfff"/><rect x="95.1" y="507.2" width="31.7" height="31.7" fill="#e4f5ff"/><rect x="63.4" y="538.9" width="31.7" height="31.7" fill="#def3ff"/><circle cx="79.25" cy="554.75" r="15.85" fill="#d1efff"/><rect x="95.1" y="538.9" width="31.7" height="31.7" fill="#6782ef"/><rect x="95.1" y="538.9" width="31.7" height="31.7" fill="#57c4ff"/><rect x="126.8" y="507.2" width="63.4" height="63.4" fill="#c2cdf9"/><rect x="126.8" y="507.2" width="63.4" height="63.4" fill="#c4cef9"/><rect x="190.2" y="507.2" width="63.4" height="63.4" fill="#b2c0f7"/><polygon points="190.2,507.2 253.6,570.6 190.2,570.6" fill="#f2faff"/><rect x="253.6" y="507.2" width="63.4" height="63.4" fill="#ffffff"/><rect x="253.6" y="507.2" width="31.7" height="31.7" fill="#f4fbff"/><polygon points="285.3,507.2 285.3,538.9 253.6,538.9" fill="#eaf8ff"/><rect x="285.3" y="507.2" width="31.7" height="31.7" fill="#dce2fb"/><polygon points="285.3,507.2 317,538.9 285.3,538.9" fill="#aab9f6"/><rect x="253.6" y="538.9" width="31.7" height="31.7" fill="#f0faff"/><polygon points="253.6,538.9 285.3,538.9 253.6,570.6" fill="#5371ed"/><rect x="285.3" y="538.9" width="31.7" height="31.7" fill="#5ec7ff"/><polygon points="285.3,538.9 317,538.9 317,570.6" fill="#e8ecfd"/><rect x="317" y="507.2" width="63.4" height="63.4" fill="#ffffff"/><rect x="317" y="507.2" width="31.7" height="31.7" fill="#f6f8fe"/><path d="M 317 538.9 A 31.7 31.7 0 0 0 348.7 507.2 L 317 507.2" fill="#f4fbff"/><rect x="348.7" y="507.2" width="31.7" height="31.7" fill="#eaeefd"/><path d="M 348.7 507.2 A 31.7 31.7 0 0 0 380.4 538.9 L 380.4 507.2" fill="#e4f6ff"/><rect x="317" y="538.9" width="31.7" height="31.7" fill="#fbfcff"/><path d="M 317 538.9 A 31.7 31.7 0 0 1 348.7 570.6 L 317 570.6" fill="#7e95f1"/><rect x="348.7" y="538.9" width="31.7" height="31.7" fill="#dae1fb"/><path d="M 348.7 570.6 A 31.7 31.7 0 0 1  380.4 538.9 L 380.4 570.6" fill="#dde3fb"/><rect x="380.4" y="507.2" width="63.4" height="63.4" fill="#b9e7ff"/><path d="M 380.4 507.2 A 63.4 63.4 0 0 0 443.79999999999995 570.6 L 443.79999999999995 507.2" fill="#fdfdff"/><rect x="443.8" y="507.2" width="63.4" height="63.4" fill="#ffffff"/><rect x="443.8" y="507.2" width="31.7" height="31.7" fill="#8ea2f3"/><path d="M 443.8 538.9 A 31.7 31.7 0 0 0 475.5 507.2 L 443.8 507.2" fill="#c5ebff"/><rect x="475.5" y="507.2" width="31.7" height="31.7" fill="#93d9ff"/><path d="M 475.5 507.2 A 31.7 31.7 0 0 0 507.2 538.9 L 507.2 507.2" fill="#95daff"/><rect x="443.8" y="538.9" width="31.7" height="31.7" fill="#c6ebff"/><path d="M 443.8 538.9 A 31.7 31.7 0 0 1 475.5 570.6 L 443.8 570.6" fill="#99dcff"/><rect x="475.5" y="538.9" width="31.7" height="31.7" fill="#bcc8f8"/><path d="M 475.5 570.6 A 31.7 31.7 0 0 1  507.2 538.9 L 507.2 570.6" fill="#f0faff"/><rect x="507.2" y="507.2" width="63.4" height="63.4" fill="#ffffff"/><rect x="507.2" y="507.2" width="31.7" height="31.7" fill="#ddf3ff"/><path d="M 507.2 538.9 A 31.7 31.7 0 0 0 538.9 507.2 L 507.2 507.2" fill="#5170ed"/><rect x="538.9" y="507.2" width="31.7" height="31.7" fill="#68caff"/><path d="M 538.9 507.2 A 31.7 31.7 0 0 0 570.6 538.9 L 570.6 507.2" fill="#b7e6ff"/><rect x="507.2" y="538.9" width="31.7" height="31.7" fill="#5876ed"/><path d="M 507.2 538.9 A 31.7 31.7 0 0 1 538.9 570.6 L 507.2 570.6" fill="#8ba0f3"/><rect x="538.9" y="538.9" width="31.7" height="31.7" fill="#bbe7ff"/><path d="M 538.9 570.6 A 31.7 31.7 0 0 1  570.6 538.9 L 570.6 570.6" fill="#e2e7fc"/><rect x="570.6" y="507.2" width="63.4" height="63.4" fill="#ffffff"/><rect x="570.6" y="507.2" width="31.7" height="31.7" fill="#7ed2ff"/><path d="M 570.6 507.2 A 31.7 31.7 0 0 0 602.3000000000001 538.9 L 602.3000000000001 507.2" fill="#cdeeff"/><rect x="602.3" y="507.2" width="31.7" height="31.7" fill="#e4e9fc"/><path d="M 602.3 538.9 A 31.7 31.7 0 0 0 634 507.2 L 602.3 507.2" fill="#50c2ff"/><rect x="570.6" y="538.9" width="31.7" height="31.7" fill="#bfe9ff"/><path d="M 570.6 570.6 A 31.7 31.7 0 0 1  602.3000000000001 538.9 L 602.3000000000001 570.6" fill="#bcc8f8"/><rect x="602.3" y="538.9" width="31.7" height="31.7" fill="#9dddff"/><path d="M 602.3 538.9 A 31.7 31.7 0 0 1 634 570.6 L 602.3 570.6" fill="#728bf0"/><rect x="634" y="507.2" width="63.4" height="63.4" fill="#ffffff"/><rect x="634" y="507.2" width="31.7" height="31.7" fill="#64c9ff"/><circle cx="649.85" cy="523.05" r="15.85" fill="#e4f6ff"/><rect x="665.7" y="507.2" width="31.7" height="31.7" fill="#a1deff"/><rect x="665.7" y="507.2" width="31.7" height="31.7" fill="#afe3ff"/><rect x="634" y="538.9" width="31.7" height="31.7" fill="#e2e7fc"/><circle cx="649.85" cy="554.75" r="15.85" fill="#cfeeff"/><rect x="665.7" y="538.9" width="31.7" height="31.7" fill="#73ceff"/><rect x="665.7" y="538.9" width="31.7" height="31.7" fill="#cbd4fa"/><rect x="697.4" y="507.2" width="63.4" height="63.4" fill="#ffffff"/><rect x="697.4" y="507.2" width="31.7" height="31.7" fill="#a0deff"/><polygon points="729.1,507.2 729.1,538.9 697.4,538.9" fill="#d0d8fa"/><rect x="729.1" y="507.2" width="31.7" height="31.7" fill="#c5ebff"/><polygon points="729.1,507.2 760.8000000000001,507.2 729.1,538.9" fill="#5472ed"/><rect x="697.4" y="538.9" width="31.7" height="31.7" fill="#b4e5ff"/><polygon points="697.4,538.9 729.1,538.9 729.1,570.6" fill="#d6defb"/><rect x="729.1" y="538.9" width="31.7" height="31.7" fill="#eceffd"/><polygon points="729.1,538.9 760.8000000000001,570.6 729.1,570.6" fill="#bfe8ff"/><rect x="760.8" y="507.2" width="63.4" height="63.4" fill="#ffffff"/><rect x="760.8" y="507.2" width="31.7" height="31.7" fill="#50c2ff"/><polygon points="792.5,507.2 792.5,538.9 760.8,538.9" fill="#7c94f1"/><rect x="792.5" y="507.2" width="31.7" height="31.7" fill="#fcfcff"/><polygon points="792.5,507.2 824.2,507.2 792.5,538.9" fill="#cbedff"/><rect x="760.8" y="538.9" width="31.7" height="31.7" fill="#9bdcff"/><polygon points="760.8,538.9 792.5,538.9 792.5,570.6" fill="#edf0fd"/><rect x="792.5" y="538.9" width="31.7" height="31.7" fill="#95a8f4"/><polygon points="792.5,538.9 824.2,570.6 792.5,570.6" fill="#ace2ff"/><rect x="824.1999999999999" y="507.2" width="63.4" height="63.4" fill="#ffffff"/><rect x="824.2" y="507.2" width="31.7" height="31.7" fill="#feffff"/><path d="M 824.2 507.2 A 31.7 31.7 0 0 1 855.9000000000001 538.9 L 824.2 538.9" fill="#c2eaff"/><rect x="855.9" y="507.2" width="31.7" height="31.7" fill="#eceffd"/><path d="M 855.9 538.9 A 31.7 31.7 0 0 1  887.6 507.2 L 887.6 538.9" fill="#4c6cec"/><rect x="824.2" y="538.9" width="31.7" height="31.7" fill="#c9d2f9"/><path d="M 824.2 570.6 A 31.7 31.7 0 0 0 855.9000000000001 538.9 L 824.2 538.9" fill="#74ceff"/><rect x="855.9" y="538.9" width="31.7" height="31.7" fill="#a2dfff"/><path d="M 855.9 538.9 A 31.7 31.7 0 0 0 887.6 570.6 L 887.6 538.9" fill="#778ff1"/><rect x="887.6" y="507.2" width="63.4" height="63.4" fill="#637fef"/><polygon points="887.6,507.2 951,507.2 951,570.6" fill="#5dc7ff"/><rect x="951" y="507.2" width="63.4" height="63.4" fill="#ffffff"/><rect x="951" y="507.2" width="31.7" height="31.7" fill="#dbe2fb"/><polygon points="982.7,507.2 982.7,538.9 951,538.9" fill="#caecff"/><rect x="982.7" y="507.2" width="31.7" height="31.7" fill="#8ed7ff"/><polygon points="982.7,507.2 1014.4000000000001,538.9 982.7,538.9" fill="#51c2ff"/><rect x="951" y="538.9" width="31.7" height="31.7" fill="#52c3ff"/><polygon points="951,538.9 982.7,538.9 951,570.6" fill="#708af0"/><rect x="982.7" y="538.9" width="31.7" height="31.7" fill="#c3eaff"/><polygon points="982.7,538.9 1014.4000000000001,538.9 1014.4000000000001,570.6" fill="#acbaf6"/><rect x="0" y="570.6" width="63.4" height="63.4" fill="#bac6f8"/><rect x="0" y="570.6" width="63.4" height="63.4" fill="#ccd5fa"/><rect x="63.4" y="570.6" width="63.4" height="63.4" fill="#a4dfff"/><rect x="63.4" y="570.6" width="63.4" height="63.4" fill="#eaeefd"/><rect x="126.8" y="570.6" width="63.4" height="63.4" fill="#ffffff"/><rect x="126.8" y="570.6" width="31.7" height="31.7" fill="#7991f1"/><path d="M 126.8 602.3000000000001 A 31.7 31.7 0 0 1  158.5 570.6 L 158.5 602.3000000000001" fill="#778ff1"/><rect x="158.5" y="570.6" width="31.7" height="31.7" fill="#bdc8f8"/><path d="M 158.5 570.6 A 31.7 31.7 0 0 1 190.2 602.3000000000001 L 158.5 602.3000000000001" fill="#afbdf7"/><rect x="126.8" y="602.3" width="31.7" height="31.7" fill="#eef9ff"/><path d="M 126.8 602.3 A 31.7 31.7 0 0 0 158.5 634 L 158.5 602.3" fill="#e3f5ff"/><rect x="158.5" y="602.3" width="31.7" height="31.7" fill="#96a8f4"/><path d="M 158.5 634 A 31.7 31.7 0 0 0 190.2 602.3 L 158.5 602.3" fill="#c3cef9"/><rect x="190.2" y="570.6" width="63.4" height="63.4" fill="#f4f6fe"/><rect x="190.2" y="570.6" width="63.4" height="63.4" fill="#feffff"/><rect x="253.6" y="570.6" width="63.4" height="63.4" fill="#ffffff"/><rect x="253.6" y="570.6" width="31.7" height="31.7" fill="#eaf8ff"/><polygon points="285.3,570.6 285.3,602.3000000000001 253.6,602.3000000000001" fill="#5473ed"/><rect x="285.3" y="570.6" width="31.7" height="31.7" fill="#59c5ff"/><polygon points="285.3,570.6 317,602.3000000000001 285.3,602.3000000000001" fill="#92d9ff"/><rect x="253.6" y="602.3" width="31.7" height="31.7" fill="#4c6cec"/><polygon points="253.6,602.3 285.3,602.3 253.6,634" fill="#8ca1f3"/><rect x="285.3" y="602.3" width="31.7" height="31.7" fill="#c2cdf9"/><polygon points="285.3,602.3 317,602.3 317,634" fill="#d1d9fa"/><rect x="317" y="570.6" width="63.4" height="63.4" fill="#93a7f4"/><polygon points="317,570.6 380.4,570.6 317,634" fill="#6782ef"/><rect x="380.4" y="570.6" width="63.4" height="63.4" fill="#ffffff"/><rect x="380.4" y="570.6" width="31.7" height="31.7" fill="#60c7ff"/><path d="M 380.4 602.3000000000001 A 31.7 31.7 0 0 1 412.09999999999997 570.6 L 412.09999999999997 578.525 A 23.775 23.775 0 0 0 388.325 602.3000000000001" fill="#98dbff"/><rect x="412.1" y="570.6" width="31.7" height="31.7" fill="#8dd7ff"/><path d="M 412.1 570.6 A 31.7 31.7 0 0 1 443.8 602.3000000000001 L 435.875 602.3000000000001 A 23.775 23.775 0 0 0 412.1 578.525" fill="#b6c3f7"/><rect x="380.4" y="602.3" width="31.7" height="31.7" fill="#60c7ff"/><path d="M 380.4 602.3 A 31.7 31.7 0 0 0 412.09999999999997 634 L 412.09999999999997 626.0749999999999 A 23.775 23.775 0 0 1 388.325 602.3" fill="#b4e5ff"/><rect x="412.1" y="602.3" width="31.7" height="31.7" fill="#617dee"/><path d="M 412.1 634 A 31.7 31.7 0 0 0 443.8 602.3 L 435.875 602.3 A 23.775 23.775 0 0 1 412.1 626.0749999999999" fill="#7d94f1"/><rect x="443.8" y="570.6" width="63.4" height="63.4" fill="#edf9ff"/><polygon points="507.2,570.6 507.2,634 443.8,634" fill="#fbfeff"/><rect x="507.2" y="570.6" width="63.4" height="63.4" fill="#46beff"/><rect x="507.2" y="570.6" width="63.4" height="63.4" fill="#6d87f0"/><rect x="570.6" y="570.6" width="63.4" height="63.4" fill="#ffffff"/><rect x="570.6" y="570.6" width="31.7" height="31.7" fill="#fbfeff"/><path d="M 570.6 602.3000000000001 A 31.7 31.7 0 0 0 602.3000000000001 570.6 L 570.6 570.6" fill="#b1bff7"/><rect x="602.3" y="570.6" width="31.7" height="31.7" fill="#6bcbff"/><path d="M 602.3 570.6 A 31.7 31.7 0 0 0 634 602.3000000000001 L 634 570.6" fill="#c8ecff"/><rect x="570.6" y="602.3" width="31.7" height="31.7" fill="#54c3ff"/><path d="M 570.6 602.3 A 31.7 31.7 0 0 1 602.3000000000001 634 L 570.6 634" fill="#b5c2f7"/><rect x="602.3" y="602.3" width="31.7" height="31.7" fill="#def3ff"/><path d="M 602.3 634 A 31.7 31.7 0 0 1  634 602.3 L 634 634" fill="#d9e0fb"/><rect x="634" y="570.6" width="63.4" height="63.4" fill="#607cee"/><polygon points="634,570.6 697.4,570.6 634,634" fill="#8fa3f3"/><rect x="697.4" y="570.6" width="63.4" height="63.4" fill="#4c6bec"/><polygon points="760.8,570.6 760.8,634 697.4,634" fill="#8cd7ff"/><rect x="760.8" y="570.6" width="63.4" height="63.4" fill="#ffffff"/><rect x="760.8" y="570.6" width="31.7" height="31.7" fill="#e6f6ff"/><path d="M 760.8 602.3000000000001 A 31.7 31.7 0 0 1  792.5 570.6 L 792.5 602.3000000000001" fill="#cbedff"/><rect x="792.5" y="570.6" width="31.7" height="31.7" fill="#bdc9f8"/><path d="M 792.5 570.6 A 31.7 31.7 0 0 1 824.2 602.3000000000001 L 792.5 602.3000000000001" fill="#94daff"/><rect x="760.8" y="602.3" width="31.7" height="31.7" fill="#c8ecff"/><path d="M 760.8 602.3 A 31.7 31.7 0 0 0 792.5 634 L 792.5 602.3" fill="#b4c2f7"/><rect x="792.5" y="602.3" width="31.7" height="31.7" fill="#cdeeff"/><path d="M 792.5 634 A 31.7 31.7 0 0 0 824.2 602.3 L 792.5 602.3" fill="#6eccff"/><rect x="824.1999999999999" y="570.6" width="63.4" height="63.4" fill="#ffffff"/><rect x="824.2" y="570.6" width="31.7" height="31.7" fill="#6480ef"/><circle cx="840.0500000000001" cy="586.45" r="15.85" fill="#98aaf4"/><rect x="855.9" y="570.6" width="31.7" height="31.7" fill="#e9f7ff"/><rect x="855.9" y="570.6" width="31.7" height="31.7" fill="#b0e3ff"/><rect x="824.2" y="602.3" width="31.7" height="31.7" fill="#6ecdff"/><circle cx="840.0500000000001" cy="618.15" r="15.85" fill="#ddf3ff"/><rect x="855.9" y="602.3" width="31.7" height="31.7" fill="#fdfeff"/><rect x="855.9" y="602.3" width="31.7" height="31.7" fill="#99abf4"/><rect x="887.6" y="570.6" width="63.4" height="63.4" fill="#ffffff"/><rect x="887.6" y="570.6" width="31.7" height="31.7" fill="#d8f1ff"/><circle cx="903.45" cy="586.45" r="15.85" fill="#ebeefd"/><rect x="919.3" y="570.6" width="31.7" height="31.7" fill="#58c5ff"/><rect x="919.3" y="570.6" width="31.7" height="31.7" fill="#a0b1f5"/><rect x="887.6" y="602.3" width="31.7" height="31.7" fill="#e0e5fc"/><circle cx="903.45" cy="618.15" r="15.85" fill="#90a4f3"/><rect x="919.3" y="602.3" width="31.7" height="31.7" fill="#a7e0ff"/><rect x="919.3" y="602.3" width="31.7" height="31.7" fill="#c9ecff"/><rect x="951" y="570.6" width="63.4" height="63.4" fill="#ffffff"/><rect x="951" y="570.6" width="31.7" height="31.7" fill="#8ca1f3"/><polygon points="982.7,570.6 982.7,602.3000000000001 951,602.3000000000001" fill="#b7e6ff"/><rect x="982.7" y="570.6" width="31.7" height="31.7" fill="#c6d0f9"/><polygon points="982.7,570.6 1014.4000000000001,602.3000000000001 982.7,602.3000000000001" fill="#cbd4f9"/><rect x="951" y="602.3" width="31.7" height="31.7" fill="#e5f6ff"/><polygon points="951,602.3 982.7,602.3 982.7,634" fill="#96a9f4"/><rect x="982.7" y="602.3" width="31.7" height="31.7" fill="#becaf8"/><polygon points="982.7,602.3 1014.4000000000001,602.3 982.7,634" fill="#90a3f3"/></g></svg>